<?xml version="1.0" standalone="no"?>
<!DOCTYPE svg PUBLIC "-//W3C//DTD SVG 1.1//EN" "http://www.w3.org/Graphics/SVG/1.1/DTD/svg11.dtd" >
<!--
2013-9-30: Created.
-->
<svg>
<metadata>
Created by iconfont
</metadata>
<defs>

<font id="iconfont" horiz-adv-x="1024" >
  <font-face
    font-family="iconfont"
    font-weight="500"
    font-stretch="normal"
    units-per-em="1024"
    ascent="896"
    descent="-128"
  />
    <missing-glyph />
    
    <glyph glyph-name="close1" unicode="&#58991;" d="M704.029192 857.193247c190.296361-78.804433 314.351315-264.453656 314.351315-470.424262-0.31506-281.033699-228.02482-508.822224-509.097901-509.216049A509.176667 509.176667 0 1 0 704.029192 857.23263z m-45.683729-322.267202a29.497511 29.497511 0 0 1-38.358579-2.835542l-107.199233-107.238616-107.199234 107.238616a29.497511 29.497511 0 0 1-41.706094-41.706094l107.238616-107.199233-107.238616-107.199234-2.835542-3.308132a29.497511 29.497511 0 0 1 2.835542-38.397962l3.308132-2.835542a29.497511 29.497511 0 0 1 38.397962 2.835542l107.199234 107.238616 107.199233-107.238616a29.497511 29.497511 0 0 1 41.706094 41.706094l-107.238616 107.199234 107.238616 107.199233 2.835542 3.308132a29.497511 29.497511 0 0 1-2.835542 38.397962z"  horiz-adv-x="1024" />

    
    <glyph glyph-name="more" unicode="&#58992;" d="M509.518769-122.604308a509.203692 509.203692 0 1 0 509.124923 509.243077c-0.354462-281.088-228.036923-508.849231-509.124923-509.243077z m0 961.772308a452.608 452.608 0 1 1 452.450462-452.608C961.654154 636.337231 759.335385 838.774154 509.518769 839.128615z m191.803077-503.492923c-31.310769 0.039385-56.713846 25.284923-57.028923 56.595692-0.157538 15.044923 5.907692 29.459692 16.817231 39.817846a55.138462 55.138462 0 0 0 40.172308 16.659693c7.640615 0.078769 15.202462-1.457231 22.212923-4.529231a57.422769 57.422769 0 0 0 30.326153-30.011077c2.993231-6.931692 4.529231-14.375385 4.450462-21.937231a54.744615 54.744615 0 0 0-16.659692-39.975384 55.532308 55.532308 0 0 0-40.290462-16.620308z m-200.310154 0.078769a55.020308 55.020308 0 0 0-40.251077 16.541539 56.004923 56.004923 0 0 0-0.039384 79.911384 56.556308 56.556308 0 0 0 62.385231 11.972923c6.695385-2.875077 12.8-6.931692 18.038153-11.972923 5.12-5.238154 9.255385-11.264 12.288-17.92a55.926154 55.926154 0 0 0-12.288-61.952 55.099077 55.099077 0 0 0-40.172307-16.541538v-0.039385z m-200.546461 0a56.516923 56.516923 0 1 0 0 113.033846c7.640615 0 15.163077-1.536 22.173538-4.52923 6.695385-2.914462 12.760615-7.010462 17.998769-12.051693 5.12-5.12 9.255385-11.185231 12.130462-17.880615a55.453538 55.453538 0 0 0-12.130462-61.952 55.099077 55.099077 0 0 0-40.172307-16.620308z"  horiz-adv-x="1024" />

    
    <glyph glyph-name="export1" unicode="&#58990;" d="M977.408 492.2368c0 31.3856-25.3952 56.9344-56.8832 56.9344H613.376c-31.3856 0-56.9344-25.4464-56.9344-56.9344v-97.792h-232.96l-3.1744 6.3488c-48.64 102.912-42.3936 240.3328 177.3568 235.4176v-128.256l202.752 193.9456L497.664 896v-125.44C228.5056 777.216 187.2896 554.3936 312.32 400.7936l5.5808-6.2464H213.6576c-31.3856 0-56.9344-25.4976-56.9344-56.9344v-78.6432H40.9088c-31.3856 0-47.616-25.4464-36.1472-56.9344l93.184-255.8976c11.4688-31.3856 46.1312-56.832 77.6192-56.832h762.0096c27.9552 0 43.8784 20.224 38.9632 46.7968 0.5632 3.328 0.9216 6.6048 0.9216 10.0352V492.2368z m-99.4816-279.0912c-28.416 33.2288-94.6176 45.824-126.1056 45.824H227.9424v35.8912c0 15.6672 12.7488 28.416 28.416 28.416h371.2512V449.536c0 15.6672 12.7488 28.416 28.416 28.416h221.9008c15.6672 0 28.3648-12.7488 28.3648-28.416v-318.208c0 32.4096-9.472 59.648-28.3648 81.8176z"  horiz-adv-x="1075" />

    
    <glyph glyph-name="upload2" unicode="&#58988;" d="M253.667556 548.693333A437.873778 437.873778 0 0 0 773.12 886.215111a438.101333 438.101333 0 0 0 337.521778-337.521778 316.359111 316.359111 0 1 0-63.886222-626.176h-170.382223a59.619556 59.619556 0 0 0-7.395555 0H317.610667A316.302222 316.302222 0 0 0 253.724444 548.693333z m428.373333 43.292445a52.167111 52.167111 0 0 1-35.84-14.108445L494.592 426.268444a51.712 51.712 0 1 1 72.533333-72.590222l63.544889 63.601778v-257.137778a51.996444 51.996444 0 0 1 51.484445-47.388444c1.422222 0 2.958222 0 4.380444 0.170666a51.484444 51.484444 0 0 1 47.104 47.104v256.568889l63.544889-63.544889c9.784889-12.515556 25.031111-20.138667 40.96-20.138666a51.996444 51.996444 0 0 1 30.72 10.069333 51.029333 51.029333 0 0 1 20.309333 33.962667 50.403556 50.403556 0 0 1-15.985777 46.08l-2.332445 2.616889-152.576 151.893333a52.736 52.736 0 0 1-36.238222 14.449778z"  horiz-adv-x="1426" />

    
    <glyph glyph-name="download" unicode="&#58989;" d="M253.667556 548.693333A437.873778 437.873778 0 0 0 773.12 886.215111a438.101333 438.101333 0 0 0 337.521778-337.521778 316.359111 316.359111 0 1 0-63.886222-626.176h-170.382223a59.619556 59.619556 0 0 0-7.395555 0H317.610667A316.302222 316.302222 0 0 0 253.724444 548.693333z m430.648888 100.124445l-2.161777 0.056889a51.996444 51.996444 0 0 1-51.484445-47.445334v-313.969777L567.182222 351.061333a51.768889 51.768889 0 0 1-40.96 19.968 51.712 51.712 0 0 1-31.630222-92.558222l151.665778-151.608889a52.736 52.736 0 0 1 72.078222 0.284445l152.576 151.950222 2.275556 2.616889a50.403556 50.403556 0 0 1 15.928888 46.08 51.029333 51.029333 0 0 1-20.195555 33.962666 51.996444 51.996444 0 0 1-30.72 10.069334 52.167111 52.167111 0 0 1-40.96-20.138667l-63.544889-63.601778v313.457778a51.484444 51.484444 0 0 1-47.104 47.217778c-1.422222 0.113778-2.958222 0.113778-4.380444 0.113778z"  horiz-adv-x="1426" />

    
    <glyph glyph-name="Excel" unicode="&#58987;" d="M1019.52 5.36c-4.67-24.766-33.723-25.597-53.113-26.173-120.497-0.384-241.186 0-361.81 0V-128h-72.184c-177.257 32.956-354.9 63.48-532.349 95.22V800.652C178.602 832.648 357.139 863.748 535.549 896h69.111v-95.348c116.466 0 232.867 0 349.269 0.32a105.33 105.33 0 0 0 58.424-11.455 111.474 111.474 0 0 0 11.391-60.216q-0.896-310.105 0-619.827a555.643 555.643 0 0 0-3.967-104.115zM423.692 586.79c-26.365-1.28-52.793-2.943-79.094-4.863-19.646-48.89-42.619-96.564-57.913-147.181-14.334 47.738-33.276 93.684-50.617 140.27q-38.396-2.112-76.79-4.543c27.004-60.985 55.736-121.073 81.909-182.378-30.844-59.512-59.705-119.857-89.589-179.753 25.597-1.088 51.194-2.176 76.79-2.56 18.11 47.418 40.7 93.045 56.441 141.295a1439.18 1439.18 0 0 1 58.041-149.55c28.029-1.983 55.93-3.711 84.022-5.439-31.996 66.68-64.76 132.911-96.82 199.591q47.354 97.332 93.876 195.048z m564.793 178.154H604.532v-71.415h93.109v-83.19h-92.98v-47.673h93.108v-83.19H604.66v-47.61h93.109v-83.19H604.66v-47.674h93.109v-83.19H604.66v-47.61h93.109v-83.189H604.66v-71.415h383.952V764.944z m-81.397-154.732h-162.86v83.19h162.86v-83.19z m0-130.992h-162.86v83.19h162.86z m0-130.992h-162.86v83.19h162.86v-83.19z m0-130.927h-162.86v83.19h162.86z m0-130.992h-162.86V169.5h162.86z"  horiz-adv-x="1024" />

    
    <glyph glyph-name="level2" unicode="&#58983;" d="M923.733333 503.466667c55.466667 0 100.266667-44.8 100.266667-100.266667s-44.8-100.266667-100.266667-100.266667H100.266667c-55.466667 0-100.266667 44.8-100.266667 100.266667s44.8 100.266667 100.266667 100.266667h823.466666z m-89.6-38.4l-14.933333-2.133334 6.4-12.8h-40.533333v-40.533333c0-21.333333-4.266667-38.4-14.933334-51.2l10.666667-8.533333c10.666667 14.933333 17.066667 34.133333 17.066667 57.6h81.066666v44.8h-40.533333c0 4.266667-2.133333 8.533333-4.266667 12.8z m-599.466666 0h-12.8v-36.266667H189.866667v-12.8h32v-66.133333h12.8v66.133333h29.866666v12.8H234.666667v36.266667z m108.8 0c-2.133333-8.533333-6.4-14.933333-12.8-23.466667l8.533333-6.4h-49.066667V384h14.933334V377.6H277.333333v-10.666667h25.6c-2.133333-4.266667-8.533333-6.4-17.066666-8.533333l6.4-10.666667c10.666667 2.133333 17.066667 6.4 21.333333 10.666667 2.133333 2.133333 4.266667 4.266667 4.266667 8.533333h32v-19.2h12.8v19.2h27.733333v10.666667H362.666667V384h14.933333v51.2H341.333333c2.133333 2.133333 4.266667 6.4 6.4 10.666667h8.533334c2.133333-2.133333 4.266667-6.4 6.4-10.666667l10.666666 4.266667c0 2.133333-2.133333 4.266667-4.266666 6.4h17.066666v10.666666h-32c0 2.133333 2.133333 4.266667 2.133334 4.266667l-12.8 4.266667z m283.733333-4.266667h-57.6v-12.8h10.666667v-4.266667c0-34.133333-6.4-59.733333-17.066667-76.8v10.666667c-10.666667-4.266667-23.466667-8.533333-38.4-10.666667l2.133333-12.8c12.8 2.133333 25.6 6.4 36.266667 10.666667l-6.4-6.4 10.666667-8.533333c10.666667 12.8 19.2 32 23.466666 55.466666 4.266667-10.666667 8.533333-19.2 12.8-25.6-6.4-6.4-14.933333-12.8-25.6-17.066666l6.4-12.8c10.666667 4.266667 19.2 10.666667 25.6 17.066666 6.4-6.4 12.8-12.8 21.333334-17.066666l8.533333 10.666666c-8.533333 4.266667-14.933333 10.666667-21.333333 17.066667 8.533333 10.666667 12.8 25.6 17.066666 42.666667V426.666667h-14.933333l6.4 25.6v8.533333z m130.133333 0H661.333333v-61.866667c0-17.066667-4.266667-29.866667-10.666666-40.533333l10.666666-8.533333c8.533333 10.666667 12.8 23.466667 12.8 38.4h27.733334v-36.266667h12.8v36.266667h29.866666v-17.066667c0-4.266667-2.133333-6.4-6.4-6.4H725.333333l4.266667-12.8h14.933333c10.666667 0 14.933333 4.266667 14.933334 14.933333v93.866667zM179.2 426.666667H149.333333v-12.8h17.066667v-44.8c0-2.133333-2.133333-4.266667-4.266667-6.4l4.266667-12.8 25.6 19.2v17.066666c-4.266667-4.266667-8.533333-6.4-10.666667-10.666666V426.666667z m334.933333-53.333334h-113.066666v-12.8h113.066666v12.8z m-166.4 12.8v-6.4h-29.866666V386.133333h29.866666z m198.4 78.933334c-4.266667-12.8-10.666667-25.6-14.933333-36.266667-2.133333-2.133333-4.266667-4.266667-6.4-4.266667l2.133333-12.8c6.4 0 12.8 2.133333 17.066667 2.133334-6.4-8.533333-10.666667-14.933333-14.933333-19.2-2.133333-2.133333-4.266667-2.133333-6.4-4.266667l4.266666-12.8c12.8 2.133333 25.6 4.266667 38.4 8.533333v12.8c-8.533333-2.133333-14.933333-4.266667-23.466666-6.4 6.4 8.533333 14.933333 21.333333 25.6 40.533334l-10.666667 4.266666-6.4-12.8c-4.266667 0-8.533333-2.133333-12.8-2.133333 6.4 8.533333 12.8 21.333333 19.2 34.133333l-10.666667 8.533334z m66.133334-17.066667c-2.133333-14.933333-4.266667-25.6-6.4-34.133333h17.066666c-2.133333-10.666667-6.4-19.2-12.8-27.733334-8.533333 12.8-14.933333 25.6-19.2 40.533334v21.333333h21.333334zM362.666667 398.933333v-4.266666h-59.733334v4.266666H362.666667z m381.866666 19.2v-17.066666h-29.866666v17.066666h29.866666z m-42.666666 0v-17.066666h-27.733334v17.066666h27.733334z m-339.2-4.266666v-4.266667h-59.733334v4.266667H362.666667z m503.466666 23.466666v-19.2h-66.133333v19.2h66.133333zM362.666667 426.666667v-4.266667h-59.733334V426.666667H362.666667z m381.866666 21.333333v-17.066667h-29.866666V448h29.866666z m-42.666666 0v-17.066667h-27.733334V448h27.733334z m-409.6 17.066667c-2.133333-8.533333-8.533333-17.066667-14.933334-25.6l10.666667-6.4c4.266667 4.266667 6.4 8.533333 8.533333 12.8h8.533334c2.133333-2.133333 4.266667-6.4 6.4-8.533334l10.666666 4.266667c0 2.133333-2.133333 4.266667-4.266666 4.266667h12.8v10.666666h-27.733334c0 2.133333 2.133333 4.266667 2.133334 6.4l-12.8 2.133334z m-125.866667-2.133334l-8.533333-8.533333c8.533333-6.4 14.933333-12.8 21.333333-19.2l8.533333 8.533333c-6.4 8.533333-12.8 12.8-21.333333 19.2z m334.933333-10.666666h-89.6v-12.8h89.6v12.8z"  horiz-adv-x="1024" />

    
    <glyph glyph-name="level3" unicode="&#58984;" d="M891.733333 518.4c72.533333 0 132.266667-59.733333 132.266667-132.266667S964.266667 256 891.733333 256H134.4C61.866667 256 2.133333 315.733333 2.133333 388.266667s59.733333 132.266667 132.266667 132.266666h757.333333z m-128-59.733333l-19.2-2.133334c2.133333-4.266667 6.4-10.666667 8.533334-17.066666h-53.333334V384c0-27.733333-6.4-51.2-19.2-68.266667l12.8-10.666666c14.933333 21.333333 21.333333 46.933333 23.466667 74.666666h104.533333v59.733334h-51.2l-6.4 19.2z m-273.066666-6.4h-74.666667v-17.066667h14.933333v-6.4c0-44.8-8.533333-76.8-21.333333-100.266667V341.333333c-14.933333-6.4-32-10.666667-51.2-12.8l2.133333-17.066666c17.066667 4.266667 34.133333 8.533333 46.933334 12.8-2.133333-4.266667-4.266667-6.4-6.4-8.533334l12.8-10.666666c14.933333 17.066667 25.6 42.666667 29.866666 72.533333 4.266667-12.8 10.666667-23.466667 17.066667-34.133333-8.533333-8.533333-19.2-17.066667-32-23.466667l8.533333-14.933333c12.8 6.4 25.6 14.933333 34.133334 23.466666 8.533333-8.533333 17.066667-17.066667 27.733333-23.466666l10.666667 14.933333c-10.666667 6.4-19.2 12.8-27.733334 21.333333 10.666667 14.933333 17.066667 34.133333 21.333334 55.466667V405.333333h-19.2c2.133333 10.666667 4.266667 21.333333 6.4 34.133334v12.8z m170.666666 0h-128v-81.066667c0-21.333333-4.266667-38.4-14.933333-53.333333l12.8-12.8c10.666667 12.8 17.066667 29.866667 19.2 51.2h36.266667v-46.933334h17.066666v46.933334h38.4v-23.466667c0-6.4-2.133333-8.533333-8.533333-8.533333h-17.066667l4.266667-17.066667h19.2c12.8 0 19.2 6.4 19.2 19.2v125.866667z m-320-123.733334H192v-17.066666h149.333333v17.066666z m42.666667 128c-6.4-17.066667-12.8-32-21.333333-46.933333l-6.4-6.4 4.266666-14.933333c8.533333 0 17.066667 2.133333 23.466667 2.133333-6.4-10.666667-12.8-19.2-19.2-23.466667-2.133333-2.133333-4.266667-4.266667-8.533333-4.266666l4.266666-14.933334c17.066667 2.133333 34.133333 6.4 51.2 10.666667v14.933333c-10.666667-2.133333-19.2-6.4-29.866666-8.533333 8.533333 10.666667 21.333333 29.866667 34.133333 53.333333l-14.933333 6.4c-4.266667-6.4-6.4-12.8-8.533334-17.066666-6.4 0-10.666667-2.133333-17.066666-2.133334 8.533333 12.8 17.066667 27.733333 23.466666 44.8l-14.933333 6.4z m87.466667-21.333333c-4.266667-19.2-6.4-34.133333-8.533334-44.8h23.466667c-2.133333-12.8-8.533333-25.6-17.066667-36.266667-12.8 14.933333-19.2 34.133333-23.466666 53.333334v27.733333h25.6z m117.333333-38.4v-23.466667h-36.266667v23.466667h36.266667z m55.466667 0v-23.466667h-38.4v23.466667h38.4z m-326.4-6.4H213.333333v-17.066667h104.533334v17.066667z m488.533333 29.866667v-25.6h-87.466667v25.6h87.466667z m-162.133333 14.933333v-23.466667h-38.4v23.466667h38.4z m-55.466667 0v-23.466667h-36.266667v23.466667h36.266667z m-258.133333 10.666667H204.8v-17.066667h125.866667v17.066667z"  horiz-adv-x="1024" />

    
    <glyph glyph-name="level1" unicode="&#58985;" d="M932.266667 475.733333c51.2 0 91.733333-40.533333 91.733333-91.733333s-40.533333-91.733333-91.733333-91.733333H96C44.8 292.266667 4.266667 332.8 4.266667 384s40.533333 91.733333 91.733333 91.733333h836.266667z m-497.066667-40.533333h-38.4v-42.666667c0-12.8 0-21.333333-2.133333-29.866666-2.133333-8.533333-4.266667-14.933333-10.666667-21.333334l8.533333-8.533333c6.4 8.533333 8.533333 17.066667 10.666667 25.6 2.133333 8.533333 2.133333 19.2 2.133333 32v34.133333h17.066667v-76.8c0-6.4 4.266667-10.666667 12.8-10.666666h4.266667c4.266667 0 6.4 0 8.533333 2.133333 2.133333 2.133333 2.133333 4.266667 4.266667 8.533333v19.2l-10.666667 2.133334v-21.333334s0-2.133333-2.133333-2.133333H433.066667c-2.133333 0-2.133333 0-2.133334 2.133333v87.466667z m424.533333 4.266667l-10.666666-2.133334 6.4-12.8h-36.266667v-38.4c0-19.2-4.266667-36.266667-12.8-49.066666l8.533333-6.4c10.666667 14.933333 14.933333 32 14.933334 53.333333h74.666666v42.666667h-36.266666c-4.266667 4.266667-6.4 8.533333-8.533334 12.8z m-663.466666 0h-12.8V405.333333H153.6v-10.666666h29.866667v-61.866667h10.666666v61.866667h27.733334V405.333333H196.266667v34.133334z m100.266666 0c-2.133333-6.4-6.4-14.933333-12.8-21.333334l8.533334-6.4h-44.8v-46.933333h14.933333v-4.266667H234.666667v-8.533333h23.466666v-2.133333c-2.133333-4.266667-8.533333-6.4-17.066666-8.533334l6.4-8.533333c8.533333 2.133333 14.933333 6.4 19.2 10.666667 2.133333 2.133333 4.266667 4.266667 4.266666 8.533333h29.866667v-19.2h10.666667v19.2h25.6v8.533333h-25.6v6.4h12.8v46.933334h-32c2.133333 2.133333 4.266667 6.4 6.4 10.666666h8.533333c2.133333-2.133333 4.266667-6.4 6.4-8.533333l8.533333 4.266667c0 2.133333-2.133333 4.266667-4.266666 6.4h17.066666v8.533333h-29.866666c0 2.133333 2.133333 4.266667 2.133333 4.266667h-10.666667z m373.333334-4.266667H618.666667v-10.666667h10.666666v-4.266666c0-36.266667-8.533333-61.866667-21.333333-78.933334l8.533333-6.4c10.666667 12.8 17.066667 29.866667 21.333334 51.2 4.266667-10.666667 8.533333-19.2 12.8-25.6-6.4-6.4-14.933333-12.8-23.466667-17.066666l6.4-10.666667c8.533333 4.266667 17.066667 10.666667 23.466667 17.066667 6.4-6.4 12.8-12.8 19.2-17.066667l6.4 8.533333c-8.533333 4.266667-14.933333 10.666667-19.2 14.933334 8.533333 10.666667 12.8 23.466667 14.933333 38.4v6.4h-14.933333c2.133333 6.4 4.266667 14.933333 4.266666 25.6v8.533333z m-294.4 4.266667h-10.666667v-21.333334h-17.066667v-10.666666h14.933334c-4.266667-12.8-10.666667-25.6-17.066667-36.266667l4.266667-12.8c6.4 8.533333 10.666667 17.066667 14.933333 27.733333v-53.333333h10.666667v57.6c2.133333-4.266667 6.4-8.533333 8.533333-14.933333l6.4 10.666666c-4.266667 6.4-10.666667 12.8-14.933333 17.066667v4.266667h12.8v10.666666h-12.8v21.333334z m413.866666-4.266667h-87.466666v-55.466667c0-14.933333-4.266667-27.733333-10.666667-38.4l8.533333-6.4c6.4 8.533333 10.666667 21.333333 12.8 36.266667h27.733334v-32h10.666666v32h27.733334v-17.066667c0-4.266667-2.133333-6.4-6.4-6.4h-12.8l2.133333-10.666666h12.8c8.533333 0 12.8 4.266667 12.8 12.8v85.333333zM145.066667 405.333333H117.333333v-10.666666h17.066667v-42.666667c0-2.133333 0-4.266667-2.133333-6.4l4.266666-10.666667c8.533333 6.4 17.066667 10.666667 23.466667 19.2l-2.133333 10.666667c-6.4-2.133333-8.533333-4.266667-12.8-8.533333V405.333333z m467.2-44.8c-10.666667-4.266667-21.333333-6.4-36.266667-8.533333l2.133333-10.666667c12.8 2.133333 23.466667 6.4 34.133334 10.666667v8.533333z m-311.466667 6.4v-6.4h-27.733333V366.933333h27.733333zM597.333333 439.466667c-4.266667-12.8-8.533333-23.466667-14.933333-34.133334-2.133333-2.133333-2.133333-4.266667-4.266667-4.266666l2.133334-10.666667c6.4 0 12.8 2.133333 17.066666 2.133333-6.4-8.533333-10.666667-14.933333-14.933333-19.2-2.133333-2.133333-2.133333-2.133333-4.266667-2.133333l2.133334-10.666667c10.666667 2.133333 23.466667 4.266667 36.266666 8.533334v10.666666c-8.533333-2.133333-14.933333-4.266667-21.333333-6.4 6.4 8.533333 14.933333 21.333333 25.6 38.4l-8.533333 4.266667-6.4-12.8c-4.266667 0-8.533333-2.133333-12.8-2.133333 6.4 8.533333 10.666667 19.2 17.066666 32l-12.8 6.4z m61.866667-14.933334c-2.133333-12.8-4.266667-23.466667-6.4-32h14.933333c-2.133333-10.666667-6.4-19.2-12.8-27.733333-8.533333 10.666667-14.933333 25.6-17.066666 40.533333v17.066667h21.333333z m-345.6-42.666666v-4.266667h-55.466667v4.266667h55.466667z m465.066667 17.066666v-17.066666h-27.733334v17.066666h27.733334z m-40.533334 0v-17.066666h-25.6v17.066666h25.6z m-170.666666-6.4h-104.533334v-10.666666h104.533334v10.666666z m-253.866667 0v-4.266666h-55.466667v4.266666h55.466667z m578.133333 23.466667v-19.2h-61.866666v19.2h61.866666z m-578.133333-10.666667v-4.266666h-55.466667V405.333333h55.466667z m465.066667 19.2v-17.066666h-27.733334v17.066666h27.733334z m-40.533334 0v-17.066666h-25.6v17.066666h25.6z m-488.533333 14.933334c-2.133333-8.533333-8.533333-17.066667-14.933333-23.466667l8.533333-6.4c4.266667 4.266667 6.4 8.533333 8.533333 12.8h8.533334c2.133333-2.133333 4.266667-6.4 6.4-8.533333l8.533333 4.266666c0 2.133333-2.133333 4.266667-4.266667 6.4h12.8v8.533334h-25.6c0 2.133333 2.133333 4.266667 2.133334 6.4h-10.666667z m-115.2 0l-8.533333-6.4c8.533333-6.4 14.933333-10.666667 19.2-17.066667l6.4 8.533333c-4.266667 2.133333-10.666667 8.533333-17.066667 14.933334z"  horiz-adv-x="1024" />

    
    <glyph glyph-name="jianguan" unicode="&#58986;" d="M834.133333 573.866667c104.533333 0 189.866667-85.333333 189.866667-189.866667s-85.333333-192-189.866667-192H189.866667C85.333333 192 0 277.333333 0 384s85.333333 189.866667 189.866667 189.866667h644.266666z m-121.6-183.466667h-138.666666v-125.866667H597.333333v8.533334h104.533334v-8.533334H725.333333v64h-128V341.333333h115.2v49.066667z m-224-34.133333H320v-66.133334h-25.6v-19.2H512v19.2h-23.466667v66.133334z m-119.466666-21.333334v-44.8h-25.6v44.8h25.6z m49.066666 0v-44.8h-27.733333v44.8h27.733333z m49.066667 0v-44.8h-27.733333v44.8h27.733333z m234.666667-25.6v-17.066666H597.333333v17.066666h104.533334z m-10.666667 61.866667v-12.8H597.333333v12.8h93.866667z m-309.333333 113.066667h-23.466667v-119.466667h23.466667v119.466667z m74.666666-61.866667l-19.2-10.666667c10.666667-14.933333 21.333333-29.866667 27.733334-42.666666l19.2 12.8c-6.4 10.666667-14.933333 25.6-27.733334 40.533333z m-123.733333 49.066667h-21.333333v-98.133334h21.333333v98.133334z m332.8 12.8c-4.266667-17.066667-12.8-32-23.466667-46.933334l4.266667-2.133333-19.2-4.266667 6.4-12.8h-91.733333v-44.8h21.333333v25.6h160v-25.6h21.333333v44.8h-89.6c-2.133333 4.266667-4.266667 10.666667-6.4 14.933334l12.8-6.4c4.266667 6.4 8.533333 14.933333 12.8 21.333333h12.8c4.266667-6.4 10.666667-14.933333 12.8-23.466667l19.2 6.4c-2.133333 4.266667-6.4 10.666667-8.533333 14.933334h38.4v19.2H682.666667c2.133333 4.266667 2.133333 8.533333 4.266666 10.666666l-21.333333 8.533334z m-243.2 0c-6.4-34.133333-17.066667-59.733333-32-78.933334l14.933333-17.066666c10.666667 12.8 21.333333 27.733333 29.866667 46.933333h74.666667v21.333333h-68.266667c2.133333 8.533333 4.266667 14.933333 6.4 23.466667l-25.6 4.266667z m142.933333 0c-6.4-17.066667-14.933333-34.133333-29.866666-49.066667l19.2-12.8c6.4 6.4 12.8 14.933333 17.066666 23.466667h10.666667c4.266667-8.533333 10.666667-17.066667 12.8-25.6l21.333333 8.533333c-2.133333 6.4-6.4 10.666667-10.666666 17.066667h36.266666v19.2h-59.733333c2.133333 4.266667 2.133333 8.533333 4.266667 12.8l-21.333334 6.4z"  horiz-adv-x="1024" />

    
    <glyph glyph-name="huanying" unicode="&#58982;" d="M228.173913 270.60313v-47.994434l-73.037913-96.011131v-18.765913h43.809391l14.625392-43.831652 1.113043-2.448696c2.738087-5.342609 6.522435-7.991652 11.397565-7.991652h10.440348v-64.690087H198.945391l-2.82713 0.445218c-11.063652 2.381913-19.144348 11.264-24.286609 26.690782l-16.695652 58.434783v-196.185044H92.516174v164.886261l-18.765913-22.973217-3.628522-4.296348c-16.784696-19.300174-32.968348-28.293565-48.550956-27.002435H0.667826v64.690087H11.130435l3.361391 0.178087a21.459478 21.459478 0 0 1 13.334261 6.077218l121.054609 152.353391H21.548522v58.434782h206.625391z m1325.211826 91.826087v-73.037913H1524.201739v-125.217391h29.206261v-73.037913H1524.201739v-202.440348h-79.315478v202.440348H1198.614261v-164.886261l0.244869-3.895652c1.335652-29.273043-12.666435-42.585043-41.984-39.913739h-73.060173v64.690087h25.065739l2.337391 0.133565c6.656 0.734609 9.349565 4.87513 8.080696 12.377043v131.494957h-35.461566v73.037913h35.461566V289.391304h-37.554087v73.037913H1553.363478z m-1072.684522 0v-210.765913l0.111305-4.808347c0.400696-34.304-9.371826-50.799304-29.339826-49.463653v-131.472695l-0.200348-3.161044c-0.445217-13.089391 4.474435-19.010783 14.825739-17.719652h12.510609v-60.505043h-47.994435l-3.650783-0.512c-32.211478-3.650783-46.302609 16.005565-42.273391 58.946782v154.423652H361.73913l-27.136-162.793739-0.400695-4.407652c-3.962435-34.504348-23.30713-50.42087-58.034087-47.749565H244.869565V-54.984348h10.440348l2.003478 0.155826c7.123478 1.068522 11.330783 7.969391 12.599652 20.702609l20.880696 131.494956H244.869565V362.429217h235.831652z m1331.467131 4.185044v-398.625391l0.155826-2.181566c1.046261-7.012174 7.257043-11.130435 18.632348-12.421565h144.005565v-64.690087h-183.652174l-3.940174-0.066782c-33.502609 0.200348-49.574957 20.390957-48.239304 60.594087v417.391304h73.037913z m265.037913 0v-396.53287l-0.200348-2.003478c-0.222609-7.012174 5.431652-10.50713 16.918261-10.50713v-68.875131h-37.576348l-4.429913 0.089044c-33.213217 1.335652-49.842087 18.009043-49.842087 49.997913V366.614261h75.152696zM883.489391 239.304348v-290.081391l0.445218-4.229566c3.561739-40.18087-19.567304-58.256696-69.320348-54.205217h-39.66887v62.597565h25.065739l1.825392-0.200348c7.012174-0.289391 9.883826 5.342609 8.592695 16.918261V239.304348h73.060174z m-93.940869-54.272l-31.298783-237.901913-0.222609-4.541218c-2.582261-38.555826-21.281391-55.830261-56.097391-51.801043h-27.158261v56.342261h6.277565l1.202087 0.578782c3.517217 2.248348 5.89913 9.015652 7.123479 20.279653l29.228521 217.043478h70.967653z m194.114782-2.070261l16.695653-208.695652 0.066782-3.739826c0.645565-15.582609 5.476174-23.396174 14.536348-23.396174h8.347826v-56.342261H985.711304l-4.385391-0.222609c-37.420522-1.202087-56.141913 16.962783-56.141913 54.472348l-16.695652 237.924174h75.152695z m732.516174 183.652174v-413.228522l0.222609-4.518956c1.179826-41.405217-18.365217-60.772174-58.657391-58.10087h-41.739131V-44.521739l3.517218-0.178087c16.962783-0.489739 24.130783 5.12 21.52626 16.873739V366.614261h75.130435z m-1020.527304 2.070261l-45.924174-108.521739v-369.374609h-73.015652V205.913043h-29.228522v62.619827h4.162783l2.404174 0.133565c8.592696 1.068522 15.449043 7.969391 20.569043 20.724869l37.554087 79.315479h83.478261z m2988.521739 0v-64.690087h-189.907478v-110.592h187.814956v-66.782609h-169.049043l93.940869-135.657739 2.404174-4.051478c12.377043-19.478261 29.673739-28.560696 51.845566-27.247305h25.043478v-66.782608h-50.086957l-6.032695-0.155826c-35.461565-0.333913-57.789217 8.058435-67.005218 25.199304l-108.521739 146.075826-110.636522-141.913043-2.515478-3.784348c-13.868522-19.589565-33.881043-28.048696-60.082087-25.421913h-62.597565v66.782608H3250.086957l2.871652-0.178087c11.353043-0.111304 21.526261 6.90087 30.519652 21.036522l106.429217 146.098087h-171.119304v66.782609h185.744696v110.592h-181.581913v64.712348H3684.173913z m-1076.869565-118.939826v-141.913044l18.788174 2.070261v-60.505043h-18.788174v-102.266435l0.089043-4.229565c-0.066783-33.302261-16.784696-49.285565-50.176-47.949913H2164.869565v150.260869l-18.788174 2.092522v60.527304h18.788174v141.913044h442.434783z m-73.037913-202.440348H2237.885217v-96.011131h116.869566l-25.043479 73.060174h87.663305L2448.695652-48.706783h66.782609l2.782609 0.111305c10.685217 0.890435 16.005565 7.123478 16.005565 18.69913v77.200696zM1926.967652 366.614261v-279.663304l0.133565-2.181566c1.046261-7.012174 7.257043-11.152696 18.632348-12.421565h29.228522v-73.037913H1903.972174l-4.229565-0.222609c-34.682435-1.246609-51.355826 15.515826-50.020174 50.309566v317.217391h77.222956z m1233.385739-194.092522v-70.967652h-480.01113V172.521739h480.01113z m-626.086956 18.788174H2237.885217v-83.478261h114.777044l-16.695652 60.505044h85.570782l20.880696-60.505044h91.826087v83.478261z m-2124.53287 112.684522H311.652174v-148.168348h85.570783l2.137043-0.222609 1.958957 0.022261c6.789565 0.445217 9.594435 5.38713 8.414608 14.803478v133.565218z m1035.130435-14.603131H1198.614261v-125.217391h246.249739V289.391304zM812.521739 370.777043l-10.440348-20.858434h223.321044l-18.788174-135.657739h-73.060174l10.462609 73.037913h-166.956522l-25.065739-45.901913-1.202087-3.227827c-6.144-14.469565-18.966261-21.036522-38.444522-19.745391h-43.831652v62.619826h10.440348l2.82713 0.155826c8.281043 0.868174 14.291478 5.698783 18.031305 14.469566l33.391304 75.108173H812.521739z m1490.098087-2.07026l-10.462609-25.043479h331.842783v-62.619826h-367.304348l-3.183304-3.695304c-12.644174-14.113391-24.108522-20.546783-34.370783-19.255652h-75.152695v60.505043h20.880695l2.782609 0.200348c7.41287 0.957217 14.848 5.765565 22.260869 14.425044l20.880696 35.461565h91.803826z m-2074.445913-12.53287v-58.434783H21.570783V356.173913h206.60313zM702.107826 680.002783v-49.90887l-0.467478-4.274087c-3.428174-26.423652-17.497043-40.002783-42.162087-40.781913v19.478261l2.337391 0.667826c8.993391 3.183304 13.490087 11.887304 13.490087 26.112h-19.478261V680.002783h46.258087zM593.719652 877.234087v-30.45287l-17.051826-54.761739v-59.65913h15.827478v-35.328h-17.029565v-60.861218l0.133565-4.006956c0.356174-24.84313-10.662957-36.507826-33.012869-34.949565h-77.913044v35.305739h57.210435l2.114783-0.089044c6.633739 0.133565 9.572174 4.630261 8.859826 13.490087V697.032348h-84.012522V732.360348h83.990261V765.217391H465.92V799.298783h70.611478l13.378783 42.607304h-94.942609V877.211826h138.774261zM370.95513 879.638261V844.354783h25.555479V879.660522h40.180869V844.354783h12.176696v-36.507826h-13.401044v-118.116174l-0.111304-3.695305c-0.489739-7.145739-2.493217-12.822261-5.965913-16.985043l-17.051826-18.253913 7.323826-8.525913 2.381913-2.270609c4.674783-4.185043 8.748522-6.255304 12.221217-6.255304h13.378783v-36.507826h-32.857043l-2.960696-0.133566-2.893913 0.222609c-6.633739 0.912696-12.822261 4.541217-18.476522 10.841044l-8.548174 9.75026-10.952348-10.952347-2.493217-1.936696c-5.053217-3.584-10.729739-5.38713-16.985043-5.387131h-37.732174v35.30574h15.805217l3.33913 0.089043c6.233043 0.289391 10.418087 1.491478 12.510609 3.561739l9.728 9.750261-23.129043 28.004174-1.491479 2.56c-2.248348 4.518957-3.383652 10.150957-3.383652 16.918261V807.824696h-9.728V844.354783h10.952348V879.682783h42.607304zM257.736348 701.885217l6.099478-52.335304 0.356174-2.849391c0.979478-6.233043 2.893913-9.349565 5.721043-9.349565h7.301566v-37.709914h-25.555479l-3.205565-0.311652c-16.539826-1.001739-24.798609 8.45913-24.798608 28.293566l-7.301566 74.26226h41.405218z m-189.907478 0l-4.875131-70.611478-0.089043-3.784348c-1.024-20.880696-10.729739-30.163478-29.117218-27.870608H5.743304v36.530087H11.798261l2.048-0.111305c5.12 0.178087 7.702261 3.85113 7.702261 11.063652l3.650782 54.784h42.607305z m58.434782-1.202087v-49.93113l-0.089043-2.31513c0.044522-8.125217 4.541217-11.798261 13.467826-11.063653h69.409391v-35.305739H104.336696l-3.272348-0.178087-3.049739 0.044522c-15.805217 0.712348-22.617043 10.106435-20.457739 28.137739V700.705391h48.706782z m57.210435 0v-6.099478l0.133565-2.048c0.623304-5.12 3.82887-7.68 9.616696-7.68h15.805217v-32.879304H161.591652l-3.094261-0.178087-2.871652 0.044522c-12.866783 0.801391-18.587826 9.349565-17.16313 25.711304V700.68313h45.033739z m213.036522 107.119305H369.753043v-99.817739l0.155827-2.493218c0.378435-3.383652 1.558261-7.012174 3.494956-10.907826l10.974609-13.378782 9.728 13.378782 0.890435 1.669565c1.024 2.448696 1.558261 5.965913 1.55826 10.507131V807.846957zM90.957913 880.862609L65.380174 840.704v-131.494957H19.144348V810.295652H2.092522V847.983304H11.798261l2.649043 0.089044c4.964174 0.400696 8.147478 2.003478 9.527653 4.786087L42.25113 880.862609h48.706783z m110.770087-58.434783v-80.361739l0.445217-2.982957c2.359652-21.414957-11.998609-30.98713-43.052521-28.649739h-19.478261V744.514783h9.750261l1.780869-0.089044c4.407652 0.155826 6.233043 3.82887 5.520696 11.063652V822.427826h45.056z m-60.861217-19.478261l-14.603131-70.611478v-2.760348c-0.578783-14.246957-11.931826-20.21287-34.081391-17.92h-14.625391v36.507826h9.75026l1.291131-0.111304c3.294609 0.089043 5.298087 3.361391 6.010435 9.861565l8.525913 45.033739h37.732174z m109.568 2.448696l14.60313-51.133218 0.467478-1.958956c1.202087-3.695304 3.895652-5.87687 8.058435-6.566957h3.650783v-32.879304h-17.029566l-3.494956-0.311652c-18.053565-1.113043-27.848348 7.101217-29.384348 24.665043L209.029565 805.398261h41.382957zM156.716522 882.086957l-4.897392-12.176696h127.821913l-14.60313-56.008348H222.430609l6.099478 20.702609H137.216l-7.301565-10.952348-1.424696-2.515478c-5.12-7.991652-13.55687-11.620174-25.377391-10.885566h-21.904696V850.432h10.974609l1.847652-0.111304c4.808348 0.178087 8.659478 3.85113 11.53113 11.063652l9.750261 20.702609h41.405218z"  horiz-adv-x="3695" />

    
    <glyph glyph-name="top" unicode="&#58981;" d="M946.744889 895.146667H72.248889a71.509333 71.509333 0 1 1 0-143.075556h874.552889a71.509333 71.509333 0 1 1 0 143.075556zM562.119111 678.001778c-1.706667 1.706667-3.413333 3.242667-5.290667 4.778666l-2.503111 1.820445c-1.024 0.796444-2.048 1.592889-3.072 2.275555-1.024 0.739556-2.048 1.308444-3.128889 1.934223l-2.844444 1.706666-3.242667 1.536-3.128889 1.479111-3.185777 1.137778-3.413334 1.194667-3.242666 0.853333-3.584 0.853334-3.754667 0.568888-3.128889 0.455112a72.248889 72.248889 0 0 1-7.054222 0.341333h-1.024a71.281778 71.281778 0 0 1-51.598222-20.935111l-361.699556-361.642667a71.509333 71.509333 0 0 1 101.148445-101.148444L440.035556 456.817778v-499.598222a71.509333 71.509333 0 0 1 143.018666 0V454.769778l239.559111-239.559111a71.281778 71.281778 0 0 1 101.148445 0 71.509333 71.509333 0 0 1 0 101.148444L562.119111 678.001778z"  horiz-adv-x="1024" />

    
    <glyph glyph-name="copy" unicode="&#58980;" d="M848.989091 894.882909H328.471273c-42.821818 0-79.592727-36.770909-79.592728-79.592727v-42.868364H732.625455c42.868364 0 79.592727-36.770909 79.592727-79.592727v-569.530182h42.914909c42.821818 0 79.592727 36.770909 79.592727 79.592727V815.336727c-6.144 42.821818-42.821818 79.592727-85.736727 79.592728zM726.574545 607.092364c0 42.821818-36.770909 79.592727-79.592727 79.592727H126.417455c-42.868364 0-79.592727-36.770909-79.592728-79.592727v-612.398546c0-42.821818 36.724364-79.592727 79.592728-79.592727h520.517818c42.821818 0 79.592727 36.770909 79.592727 79.592727V607.092364zM365.242182 466.245818c0-12.241455-6.144-18.385455-18.385455-18.385454h-159.185454c-12.288 0-18.385455 6.144-18.385455 18.385454v42.821818c0 12.288 6.097455 18.385455 18.338909 18.385455h159.185455c12.288 0 18.432-6.097455 18.432-18.338909v-42.868364z m165.329454-324.561454c0-12.241455-6.144-18.385455-18.385454-18.385455H187.624727c-12.241455 0-18.338909 6.144-18.338909 18.385455v42.821818c0 12.288 6.097455 18.432 18.338909 18.432h318.464c12.241455 0 18.338909-6.144 18.338909-18.385455v-42.868363h6.144z m79.592728 159.185454c0-12.241455-12.241455-18.338909-24.482909-18.338909H187.578182c-12.241455 0-18.338909 6.097455-18.338909 18.385455v42.821818c0 12.288 6.097455 18.385455 18.338909 18.385454h398.056727c12.241455 0 24.482909-6.097455 24.482909-18.338909v-42.868363z"  horiz-adv-x="1024" />

    
    <glyph glyph-name="icons8-visible" unicode="&#58978;" d="M512 650.24C238.96064 650.24 25.6 397.43488 25.6 397.43488a20.43904 20.43904 0 0 1 0-26.86976S238.96064 117.76 512 117.76s486.4 252.80512 486.4 252.80512a20.43904 20.43904 0 0 1 0 26.86976S785.03936 650.24 512 650.24z m0-40.96c53.84192 0 105.2672-11.12064 152.96512-28.16C696.9344 544.95232 716.8 497.68448 716.8 445.44c0-113.3568-91.4432-204.8-204.8-204.8s-204.8 91.4432-204.8 204.8c0 52.224 19.21024 99.5328 51.2 135.68C406.24128 598.24128 457.99424 609.28 512 609.28z m-221.45024-58.24512A243.712 243.712 0 0 1 266.24 445.44c0-135.51616 110.24384-245.76 245.76-245.76s245.76 110.24384 245.76 245.76c0 37.60128-8.56064 73.60512-23.67488 105.59488 115.67104-58.7776 198.8608-144.0768 220.16-167.03488C920.96512 347.99616 736.72704 158.72 512 158.72S103.03488 347.99616 69.75488 384c21.2992 23.04 104.87808 108.2368 220.79488 167.03488zM512 547.84a102.4 102.4 0 1 1 0-204.8 102.4 102.4 0 0 1 0 204.8z"  horiz-adv-x="1024" />

    
    <glyph glyph-name="icons8-visible_filled" unicode="&#58979;" d="M387.85024 632.95488C182.70208 577.59744 33.03424 406.07744 25.6 397.43488c-6.5536-7.68-6.5536-19.18976 0-26.86976C34.48832 360.2432 245.51424 117.76 512 117.76s477.51168 242.4832 486.4 252.80512c6.5536 7.68 6.5536 19.18976 0 26.86976-7.43424 8.64256-157.12256 180.08064-362.25024 235.52C696.89344 592.62976 737.28 523.83744 737.28 445.44c-0.08192-124.39552-100.88448-225.28-225.28-225.28s-225.19808 100.88448-225.28 225.28c0 78.39744 40.40704 147.21024 101.13024 187.51488zM512 547.84a102.4 102.4 0 1 1 0-204.8 102.4 102.4 0 0 1 0 204.8z"  horiz-adv-x="1024" />

    
    <glyph glyph-name="data" unicode="&#58915;" d="M153.6 691.2H102.4A102.357333 102.357333 0 0 1 0 588.8v-614.4C0-82.218667 45.781333-128 102.4-128h51.2C210.218667-128 256-82.218667 256-25.6V588.8c0 56.618667-45.781333 102.4-102.4 102.4z m384 204.8h-51.2A102.357333 102.357333 0 0 1 384 793.6v-819.2c0-56.618667 45.781333-102.4 102.4-102.4h51.2c56.618667 0 102.4 45.781333 102.4 102.4V793.6C640 850.218667 594.218667 896 537.6 896z m384-409.6h-51.2A102.357333 102.357333 0 0 1 768 384v-409.6c0-56.618667 45.781333-102.4 102.4-102.4h51.2c56.618667 0 102.4 45.781333 102.4 102.4V384c0 56.618667-45.781333 102.4-102.4 102.4z"  horiz-adv-x="1024" />

    
    <glyph glyph-name="upload_cunzheng" unicode="&#58917;" d="M1234.938854 514.130658A478.974004 478.974004 0 0 1 763.98615 895.9104c-184.575231 0-343.635902-101.887575-419.923584-254.633605C146.772722 615.9329 0.426665 456.786897 0.426665 259.497052a382.974404 382.974404 0 0 1 381.779742-381.865075h827.217887a315.134687 315.134687 0 0 1 318.292007 318.292007c0 165.460644-133.631443 305.49206-292.777447 318.206674m-343.635901-190.975204v-254.548273H636.584014V323.155454H445.779476l318.292007 318.121341 318.121341-318.121341h-190.889871z"  horiz-adv-x="1535" />

    
    <glyph glyph-name="file" unicode="&#58918;" d="M1093.041231 528.817231c0 23.906462-6.852923 30.759385-30.759385 30.759384H37.888c-23.945846 0-34.264615-6.852923-34.264615-34.264615v-536.103385c0-71.68 30.72-102.715077 99.052307-102.715077h894.739693c68.489846 0 99.052308 30.72 99.052307 99.052308-3.426462 184.713846-3.426462 362.338462-3.426461 543.271385zM31.035077 614.242462h1003.756308c58.092308 0 58.092308 0 58.092307 54.784 0 64.866462-27.372308 89.048615-89.00923 89.048615H570.525538c-54.823385 0-54.823385 0-54.823384 54.784 0 58.092308-27.372308 82.195692-85.346462 82.195692H89.088C27.451077 898.481231 3.741538 874.535385 0.078769 812.898462v-167.936c0.472615-27.332923 7.325538-30.680615 30.916923-30.680616z"  horiz-adv-x="1102" />

    
    <glyph glyph-name="task1" unicode="&#58932;" d="M883.95581-112.88381H141.312a67.779048 67.779048 0 0 0-67.388952 67.291429V693.930667a67.779048 67.779048 0 0 0 67.388952 67.388952h33.645714v-101.083429A67.779048 67.779048 0 0 1 242.346667 592.847238h539.794285a67.779048 67.779048 0 0 1 67.340191 67.340191V761.270857h33.645714a67.779048 67.779048 0 0 0 67.388953-67.388952v-739.425524a66.56 66.56 0 0 0-66.56-67.388952z m-150.77181 457.094096a52.321524 52.321524 0 0 1-72.167619 0l-180.419048-171.641905-84.260571 80.213333a52.321524 52.321524 0 0 1-72.167619 0c-20.041143-19.260952-20.041143-49.737143 0-68.169143l120.295619-113.859047c20.041143-19.260952 52.175238-19.260952 72.167619 0l216.551619 205.287619c20.041143 18.432 20.041143 48.90819 0 68.169143z m-52.126476 315.977143H344.259048a67.779048 67.779048 0 0 0-67.340191 67.388952v33.645714C411.550476 859.91619 413.208381 861.574095 448.512 895.268571h133.90019c32.865524-31.305143 32.085333-35.303619 166.034286-133.948952v-33.645714c0-37.741714-29.696-67.437714-67.388952-67.437715zM512.633905 827.830857A67.779048 67.779048 0 0 1 445.293714 760.441905 67.779048 67.779048 0 0 1 512.633905 693.150476a67.779048 67.779048 0 0 1 67.388952 67.340191 67.291429 67.291429 0 0 1-67.388952 67.388952z"  horiz-adv-x="1024" />

    
    <glyph glyph-name="Storagedynamics" unicode="&#58977;" d="M214.094769 884.420923C79.714462 765.085538 0.157538 583.286154 0.157538 387.072c0-90.112 16.699077-177.703385 48.600616-258.284308a49.388308 49.388308 0 1 1 91.766154 36.391385 602.112 602.112 0 0 0-41.747693 221.892923c0 168.329846 67.899077 323.190154 180.854154 423.620923a49.309538 49.309538 0 0 1-65.536 73.649231zM114.924308 3.229538a606.523077 606.523077 0 0 1 97.437538-112.009846 49.309538 49.309538 0 0 1 65.851077 73.491693 507.904 507.904 0 0 0-81.526154 93.735384 49.309538 49.309538 0 0 1-81.762461-55.217231zM348.475077 689.388308a49.309538 49.309538 0 0 0 59.785846-78.454154A280.969846 280.969846 0 0 1 296.172308 387.150769c0-88.536615 41.747692-170.299077 112.088615-223.862154a49.309538 49.309538 0 0 0-59.785846-78.532923A379.352615 379.352615 0 0 0 197.474462 387.150769c0 119.729231 56.556308 230.4 151.000615 302.316308z m648.507077-9.29477a49.309538 49.309538 0 0 0 69.159384 9.29477 379.352615 379.352615 0 0 0 151.000616-302.316308c0-119.729231-56.556308-230.4-151.000616-302.395077a49.309538 49.309538 0 0 0-59.864615 78.532923A280.969846 280.969846 0 0 1 1118.523077 387.072c0 88.457846-41.747692 170.299077-112.167385 223.862154a49.309538 49.309538 0 0 0-9.294769 69.159384zM1200.521846-110.276923c134.301538 119.335385 213.937231 301.134769 213.937231 497.348923a701.203692 701.203692 0 0 1-48.600615 258.205538 49.388308 49.388308 0 1 1-91.766154-36.233846c27.726769-70.734769 41.905231-146.038154 41.747692-221.971692 0-168.329846-67.899077-323.190154-180.854154-423.620923a49.309538 49.309538 0 1 1 65.536-73.728zM1299.692308 770.914462A606.523077 606.523077 0 0 1 1202.254769 882.845538a49.309538 49.309538 0 0 1-65.851077-73.412923c30.956308-27.805538 58.289231-59.313231 81.526154-93.814153a49.309538 49.309538 0 1 1 81.762462 55.296zM707.347692 633.698462a246.705231 246.705231 0 1 1 0-493.410462 246.705231 246.705231 0 0 1 0 493.410462z m0-98.697847a148.007385 148.007385 0 1 0 0-296.014769 148.007385 148.007385 0 0 0 0 296.014769z"  horiz-adv-x="1417" />

    
    <glyph glyph-name="reflash" unicode="&#58914;" d="M926.016 314.944c-20.352 4.096-44.736-8.128-48.768-28.416a365.248 365.248 0 0 0-357.568-280.32c-203.136 0-369.728 166.528-369.728 369.728 0 203.136 166.592 369.728 369.728 369.728 93.44 0 186.88-36.544 251.904-101.568H600.96a40.704 40.704 0 0 1-40.64-40.64c0-20.352 16.256-40.64 40.64-40.64h251.904a40.704 40.704 0 0 1 40.64 40.64V855.36A40.704 40.704 0 0 1 852.864 896a40.704 40.704 0 0 1-40.64-40.64v-142.208a443.392 443.392 0 0 1-296.64 113.792C267.776 826.88 64.64 623.744 64.64 375.936c0-247.872 203.2-451.072 451.008-451.072 207.232 0 386.048 142.272 438.848 341.312 4.096 20.352-8.128 40.64-28.416 48.768z"  horiz-adv-x="1024" />

    
    <glyph glyph-name="Functioncall" unicode="&#58913;" d="M356.785134 86.263072l300.147494 300.147494-62.845382 62.845382-20.905795-20.948461c-13.994084-13.951419-41.896921-13.951419-55.891005 0-13.908754 13.951419-13.908754 41.854256 0 55.84834l20.991126 20.905795c27.902837 27.945502 69.799758 27.945502 97.702595 0l69.799759-76.7968c27.902837-27.902837 27.902837-69.757093 0-97.702595l-300.147494-300.104829c6.997042-13.951419 13.951419-34.899879 13.951419-48.851298 0-55.891005-48.851298-104.699638-104.699638-104.699638-55.805675 0-97.702596 55.805675-97.702596 111.654015s48.851298 104.699638 104.699638 104.699637c13.951419 0 27.902837 0 34.899879-6.997042zM656.932628 700.552144l-300.147494-300.147494 62.802717-62.802717 20.94846 20.905796c13.951419 13.994084 41.896921 13.994084 55.84834 0 13.951419-13.908754 13.951419-41.811591 0-55.805675l-27.902838-27.902837c-27.945502-27.945502-69.799758-27.945502-97.702595 0l-69.842424 76.7968c-27.902837 27.902837-27.902837 69.757093 0 97.702596l307.144536 307.10187c-6.997042 13.951419-6.997042 20.905796-6.997042 34.899879C601.084288 847.106037 649.935586 895.957335 705.783926 895.957335c55.84834 0 104.699638-48.851298 104.699637-104.699637 0-55.84834-48.851298-104.699638-104.699637-104.699638-20.905796 0-34.899879 6.997042-48.851298 13.951419z m216.353652-300.147494l-139.599517 139.599516c-13.951419 13.994084-13.951419 41.896921 0 55.891005 13.994084 13.908754 41.896921 13.908754 55.891005 0l139.556851-139.642182c13.951419-13.951419 20.905796-34.899879 20.905796-55.848339 0-20.905796-6.954377-41.854256-20.905796-55.805675l-139.599516-139.599517c-13.951419-13.994084-41.854256-13.994084-55.84834 0-13.951419 13.951419-13.951419 41.854256 0 55.805675l139.599517 139.599517z m-753.803258 0l139.599516-139.599517c13.951419-13.951419 13.951419-41.854256 0-55.805675-13.994084-13.994084-41.896921-13.994084-55.891004 0L63.677347 344.55631C49.683263 358.507729 42.686221 379.456189 42.686221 400.361985c0 20.94846 6.997042 41.896921 20.905796 55.891004l139.642182 139.556852c13.951419 13.951419 41.854256 13.951419 55.848339 0 13.951419-13.951419 13.951419-41.854256 0-55.848339L119.483022 400.361985z"  horiz-adv-x="1024" />

    
    <glyph glyph-name="detils" unicode="&#58976;" d="M237.568 788.48L236.307692 384.236308l3.623385-406.291693c0-24.733538 1.339077-46.473846 6.852923-53.641846 13.312-17.408 40.566154-15.517538 55.926154 0l471.04 430.08a39.069538 39.069538 0 0 1 11.185231 29.932308 39.069538 39.069538 0 0 1-11.185231 29.932308L302.710154 844.327385C287.428923 859.766154 260.411077 861.499077 246.862769 844.327385c-6.301538-8.034462-9.216-21.897846-9.216-55.847385z"  horiz-adv-x="1024" />

    
    <glyph glyph-name="username" unicode="&#58973;" d="M219.420444 603.420444a292.579556 292.579556 0 1 1 585.159112 0 292.579556 292.579556 0 0 1-585.159112 0z m73.159112-365.681777A292.579556 292.579556 0 0 1 0-54.840889C0-95.232 32.938667-128 72.817778-128h878.364444c40.220444 0 72.817778 32.711111 72.817778 73.159111a292.579556 292.579556 0 0 1-292.579556 292.579556H292.579556z"  horiz-adv-x="1024" />

    
    <glyph glyph-name="password" unicode="&#58974;" d="M837.339429 561.054476H749.958095c0 140.336762-107.27619 247.56419-243.907047 247.564191-136.874667 0-243.95581-107.227429-243.95581-247.564191H174.567619C174.567619 729.478095 323.096381 896 505.856 896c182.759619 0 331.483429-166.521905 331.483429-334.945524z m110.884571-143.555047c0 48.176762-39.204571 87.381333-87.381333 87.381333H160.768c-48.176762 0-87.332571-39.204571-87.332571-87.381333v-414.817524c0-48.176762 39.15581-87.381333 87.332571-87.381334H860.647619c48.176762 0 87.381333 39.204571 87.381333 87.381334V417.499429h0.195048z m-368.201143-324.412953c0-36.08381-29.257143-65.536-65.584762-65.536h-9.362285c-36.132571 0-65.584762 29.257143-65.584762 65.536V270.872381c0 36.132571 29.257143 65.584762 65.584762 65.584762h9.362285c36.132571 0 65.584762-29.257143 65.584762-65.584762v-177.785905z"  horiz-adv-x="1024" />

    
    <glyph glyph-name="code" unicode="&#58975;" d="M943.640381 687.591619c-0.975238 30.134857-25.84381 58.563048-55.344762 63.73181 0 0-114.346667 18.041905-178.517333 40.911238-80.11581 28.476952-159.353905 91.184762-159.353905 91.184762C525.653333 900.973714 487.765333 899.900952 464.798476 880.786286c0 0-56.07619-56.56381-160.816762-89.673143-96.743619-38.863238-174.08-42.812952-174.08-42.812953-29.159619-3.803429-54.272-30.72-54.808381-60.854857 0 0-3.900952-154.819048 0.975238-290.669714C78.019048 153.746286 365.714286-86.552381 511.171048-86.552381c143.11619 0 390.485333 167.448381 429.348571 479.817143 9.654857 185.490286 3.169524 294.326857 3.169524 294.326857z m-223.232-213.235809l-247.369143-250.392381a30.817524 30.817524 0 0 0-40.569905-2.243048l-129.219047 102.643809a48.90819 48.90819 0 0 0-5.168762 73.630477 61.244952 61.244952 0 0 0 80.896 5.753904l59.977143-46.908952 206.067809 194.169905a56.07619 56.07619 0 0 0 76.556191-0.341334c-0.292571 0.292571-0.390095 0.731429-0.682667 1.024l1.755429-1.755428c-0.341333 0.341333-0.731429 0.438857-1.072762 0.731428a54.808381 54.808381 0 0 0-1.170286-76.31238z"  horiz-adv-x="1024" />

    
    <glyph glyph-name="add1" unicode="&#58972;" d="M795.306667 99.84v-203.093333c0-1.706667 1.706667-2.901333 3.242666-2.275556a340.764444 340.764444 0 0 1 203.491556 204.515556 2.389333 2.389333 0 0 1-2.275556 3.242666h-202.012444a2.389333 2.389333 0 0 1-2.446222-2.389333zM965.632 895.544889H57.230222a56.718222 56.718222 0 0 1-56.775111-56.775111v-908.401778c0-31.345778 25.429333-56.775111 56.775111-56.775111h624.583111c18.659556 0 36.864 1.820444 54.727111 4.778667a2.446222 2.446222 0 0 1 2.048 2.446222v275.911111c0 1.308444 1.024 2.389333 2.389334 2.389333h274.602666a2.446222 2.446222 0 0 1 2.389334 2.048c2.730667 17.351111 4.551111 35.100444 4.551111 53.134222V838.769778a56.888889 56.888889 0 0 1-56.888889 56.775111zM737.621333 327.68h-167.082666a2.389333 2.389333 0 0 1-2.389334-2.389333v-167.082667c0-30.151111-23.267556-55.751111-53.418666-57.571556a56.888889 56.888889 0 0 0-60.131556 56.604445V325.404444a2.389333 2.389333 0 0 1-2.389333 2.389334H285.297778a57.457778 57.457778 0 0 0-57.628445 53.418666 56.945778 56.945778 0 0 0 56.661334 60.245334h167.879111a2.389333 2.389333 0 0 1 2.389333 2.389333V610.588444c0 30.151111 23.267556 55.808 53.475556 57.628445A56.888889 56.888889 0 0 0 568.092444 611.555556V443.733333c0-1.308444 1.080889-2.389333 2.389334-2.389333h167.879111a56.888889 56.888889 0 0 0 56.661333-60.131556c-1.706667-30.321778-27.306667-53.418667-57.457778-53.418666z"  horiz-adv-x="1024" />

    
    <glyph glyph-name="deploy" unicode="&#58971;" d="M170.667 277.333h320c23.466 0 42.666-19.2 42.666-42.666S514.133 192 490.667 192h-320C147.2 192 128 211.2 128 234.667s19.2 42.666 42.667 42.666z m576-192c-83.2 0-149.334 66.134-149.334 149.334S663.467 384 746.667 384 896 317.867 896 234.667s-68.267-149.334-149.333-149.334z m0 213.334c-36.267 0-64-27.734-64-64s27.733-64 64-64 64 27.733 64 64-29.867 64-64 64zM512 576h320c23.467 0 42.667-19.2 42.667-42.667s-19.2-42.666-42.667-42.666H512c-23.467 0-42.667 19.2-42.667 42.666S488.533 576 512 576zM277.333 384C194.133 384 128 450.133 128 533.333s66.133 149.334 149.333 149.334 149.334-66.134 149.334-149.334S358.4 384 277.333 384z m0 213.333c-36.266 0-64-27.733-64-64s27.734-64 64-64 64 27.734 64 64c0 34.134-29.866 64-64 64z"  horiz-adv-x="1024" />

    
    <glyph glyph-name="settings" unicode="&#58970;" d="M435.53173 891.2c49.28 6.4 99.072 6.4 148.288 0a90.688 90.688 0 0 0 75.328-61.248c12.48-35.84 38.208-65.6 71.936-83.008 34.688-18.56 74.816-24.256 113.28-16.192a95.04 95.04 0 0 0 92.8-30.912 502.969 502.969 0 0 0 75.52-120.768 83.84 83.84 0 0 0-18.496-94.464 137.6 137.6 0 0 1 0-196.16c25.408-24.448 32.768-62.208 18.496-94.4a500.992 500.992 0 0 0-74.88-120.768 95.168 95.168 0 0 0-92.928-30.912 167.744 167.744 0 0 1-113.792-16.192c-33.792-17.408-59.52-47.168-71.936-83.072a90.688 90.688 0 0 0-75.712-61.184 574.545 574.545 0 0 0-148.224 0 90.688 90.688 0 0 0-75.648 61.184 147.776 147.776 0 0 1-70.656 83.072 167.744 167.744 0 0 1-113.92 16.192 95.04 95.04 0 0 0-92.8 30.912 500.992 500.992 0 0 0-74.88 120.768 83.84 83.84 0 0 0 18.368 94.4 139.042 139.042 0 0 1 41.088 98.176A139.392 139.392 0 0 1 25.67573 484.608a83.84 83.84 0 0 0-18.432 94.464A500.992 500.992 0 0 0 81.73973 699.84a94.912 94.912 0 0 0 92.864 30.912 167.744 167.744 0 0 1 113.92 16.192c33.344 17.6 58.752 47.36 71.04 83.008A90.688 90.688 0 0 0 435.46773 891.2z m74.112-299.456a205.248 205.248 0 1 1-0.256-410.496 205.248 205.248 0 0 1 0.256 410.496z m0-82.688a122.56 122.56 0 1 0-113.28-75.712 122.56 122.56 0 0 0 113.28 75.712z"  horiz-adv-x="1024" />

    
    <glyph glyph-name="jiedian" unicode="&#58969;" d="M932.266667 695.466667c0 6.4 0 10.666667-2.133334 17.066666 0 6.4-2.133333 10.666667-4.266666 17.066667 0 2.133333-2.133333 4.266667-2.133334 4.266667-2.133333 6.4-6.4 14.933333-10.666666 21.333333v2.133333c0 2.133333-2.133333 2.133333-2.133334 4.266667-2.133333 2.133333-4.266667 4.266667-6.4 8.533333-4.266667 4.266667-10.666667 10.666667-17.066666 14.933334-2.133333 0-2.133333 2.133333-4.266667 2.133333s-2.133333 2.133333-4.266667 2.133333H874.666667l-2.133334 2.133334h-2.133333s-2.133333 0-4.266667 2.133333c-2.133333 0-4.266667 2.133333-6.4 2.133333-2.133333 0-2.133333 0-4.266666 2.133334-2.133333 0-4.266667 2.133333-6.4 2.133333-2.133333 0-6.4 2.133333-8.533334 2.133333-4.266667 0-8.533333 2.133333-14.933333 2.133334h-17.066667c-4.266667 0-8.533333 0-14.933333-2.133334-2.133333 0-6.4-2.133333-8.533333-2.133333-2.133333 0-4.266667-2.133333-6.4-2.133333-2.133333 0-2.133333 0-4.266667-2.133334-2.133333 0-4.266667-2.133333-6.4-2.133333-2.133333 0-2.133333 0-4.266667-2.133333h-2.133333l-2.133333-2.133334s-2.133333 0-2.133334-2.133333c-2.133333 0-2.133333-2.133333-4.266666-2.133333s-2.133333-2.133333-4.266667-2.133334c-2.133333-4.266667-6.4-8.533333-12.8-14.933333-2.133333-2.133333-4.266667-4.266667-6.4-8.533333 0-2.133333-2.133333-2.133333-2.133333-4.266667v-2.133333c-4.266667-6.4-8.533333-12.8-10.666667-21.333334 0-2.133333-2.133333-4.266667-2.133333-4.266666-2.133333-4.266667-4.266667-10.666667-4.266667-17.066667-2.133333-6.4-2.133333-10.666667-2.133333-17.066667v-14.933333c0-4.266667 0-8.533333 2.133333-14.933333 0-2.133333 2.133333-6.4 2.133333-8.533334 4.266667-14.933333 12.8-29.866667 21.333334-40.533333l2.133333-2.133333c4.266667-4.266667 6.4-8.533333 10.666667-10.666667l-87.466667-256h-8.533333c-12.8 0-23.466667-2.133333-36.266667-6.4h-2.133333c-2.133333 0-2.133333 0-4.266667-2.133333-2.133333 0-4.266667-2.133333-6.4-2.133334l-134.4 136.533334c2.133333 4.266667 4.266667 8.533333 4.266667 14.933333 0 2.133333 2.133333 6.4 2.133333 8.533333 0 4.266667 2.133333 8.533333 2.133333 14.933334v8.533333 6.4c0 6.4 0 10.666667-2.133333 17.066667-6.4 27.733333-23.466667 53.333333-44.8 70.4l-2.133333 2.133333c-4.266667 4.266667-10.666667 6.4-17.066667 8.533333-2.133333 0-4.266667 2.133333-4.266667 2.133334-2.133333 0-4.266667 2.133333-4.266666 2.133333-10.666667 4.266667-23.466667 6.4-36.266667 6.4h-8.533333c-4.266667 0-8.533333 0-14.933334-2.133333-2.133333 0-6.4-2.133333-8.533333-2.133334-2.133333 0-4.266667-2.133333-6.4-2.133333-2.133333 0-2.133333 0-4.266667-2.133333-2.133333 0-4.266667-2.133333-6.4-2.133334-2.133333 0-2.133333-2.133333-4.266666-2.133333h-2.133334c-2.133333 0-2.133333-2.133333-2.133333-2.133333s-2.133333 0-2.133333-2.133334c-2.133333 0-2.133333-2.133333-4.266667-2.133333s-2.133333-2.133333-4.266667-2.133333c-6.4-4.266667-10.666667-8.533333-17.066666-14.933334-2.133333-2.133333-4.266667-4.266667-6.4-8.533333 0-2.133333-2.133333-2.133333-2.133334-4.266667v-2.133333c-4.266667-6.4-8.533333-12.8-10.666666-21.333333 0-2.133333-2.133333-4.266667-2.133334-4.266667-2.133333-4.266667-4.266667-10.666667-4.266666-17.066667-2.133333-6.4-2.133333-10.666667-2.133334-17.066666v-14.933334c0-4.266667 0-8.533333 2.133334-14.933333 0-2.133333 2.133333-6.4 2.133333-8.533333 4.266667-14.933333 12.8-29.866667 21.333333-40.533334l2.133334-2.133333 2.133333-2.133333-93.866667-260.266667c-10.666667 0-21.333333-2.133333-29.866666-6.4h-2.133334c-2.133333 0-2.133333 0-4.266666-2.133333-2.133333 0-4.266667-2.133333-6.4-2.133334-2.133333-2.133333-6.4-2.133333-8.533334-4.266666 0 0-2.133333 0-2.133333-2.133334-2.133333 0-2.133333-2.133333-4.266667-2.133333s-2.133333-2.133333-4.266666-2.133333-2.133333-2.133333-4.266667-4.266667l-2.133333-2.133333-6.4-6.4-2.133334-2.133334-4.266666-4.266666c0 2.133333 0 0-2.133334-2.133334s-4.266667-6.4-6.4-8.533333c-4.266667-6.4-8.533333-12.8-10.666666-19.2 0-2.133333 0-2.133333-2.133334-4.266667v-6.4c0-4.266667-2.133333-6.4-2.133333-10.666666s-2.133333-8.533333-2.133333-10.666667v-10.666667c0-61.866667 51.2-113.066667 113.066666-113.066666s113.066667 51.2 113.066667 113.066666v10.666667c0 4.266667 0 8.533333-2.133333 10.666667 0 4.266667-2.133333 6.4-2.133334 10.666666 0 2.133333-2.133333 4.266667-2.133333 4.266667-2.133333 4.266667-2.133333 4.266667-2.133333 6.4-2.133333 6.4-6.4 12.8-10.666667 19.2-2.133333 2.133333-4.266667 6.4-6.4 8.533333l-4.266667 4.266667-4.266666 4.266667-2.133334 2.133333-4.266666 4.266667 89.6 256h6.4c12.8 0 27.733333 2.133333 38.4 6.4 2.133333 0 2.133333 2.133333 4.266666 2.133333l134.4-136.533333s0-2.133333-2.133333-2.133334c0-2.133333-2.133333-4.266667-2.133333-4.266666-2.133333-4.266667-2.133333-6.4-2.133334-10.666667s-2.133333-8.533333-2.133333-10.666667v-10.666666c0-61.866667 51.2-113.066667 113.066667-113.066667s113.066667 51.2 113.066666 113.066667v10.666666c0 4.266667 0 8.533333-2.133333 10.666667s-2.133333 6.4-2.133333 10.666667c0 2.133333-2.133333 4.266667-2.133334 4.266666 0 2.133333-2.133333 4.266667-2.133333 4.266667-2.133333 6.4-6.4 12.8-10.666667 19.2-2.133333 2.133333-4.266667 6.4-6.4 8.533333 0 2.133333-2.133333 2.133333-2.133333 4.266667L823.466667 576h2.133333c4.266667 0 8.533333 0 14.933333 2.133333 2.133333 0 6.4 2.133333 8.533334 2.133334 14.933333 4.266667 29.866667 12.8 40.533333 21.333333l2.133333 2.133333 10.666667 10.666667 2.133333 2.133333c10.666667 12.8 17.066667 25.6 21.333334 40.533334 0 2.133333 2.133333 6.4 2.133333 8.533333 0 4.266667 2.133333 8.533333 2.133333 14.933333v8.533334c2.133333 4.266667 2.133333 6.4 2.133334 6.4z"  horiz-adv-x="1024" />

    
    <glyph glyph-name="api" unicode="&#58967;" d="M537.6 544c-23.466667-23.466667-23.466667-61.866667 0-87.466667 34.133333-34.133333 34.133333-91.733333 0-125.866666l-181.333333-183.466667c-21.333333-25.6-55.466667-36.266667-89.6-27.733333-32 8.533333-57.6 34.133333-66.133334 66.133333-8.533333 32 2.133333 66.133333 27.733334 89.6l40.533333 44.8c23.466667 23.466667 23.466667 64 0 87.466667s-64 23.466667-87.466667 0L140.8 362.666667c-76.8-87.466667-74.666667-219.733333 6.4-300.8 81.066667-81.066667 211.2-83.2 296.533333-6.4l181.333334 181.333333c83.2 83.2 83.2 217.6 0 300.8-10.666667 12.8-25.6 19.2-42.666667 19.2-17.066667 4.266667-32-2.133333-44.8-12.8zM874.666667 789.333333c-85.333333 81.066667-217.6 81.066667-300.8 0l-181.333334-179.2c-83.2-83.2-83.2-217.6 0-300.8 23.466667-23.466667 64-23.466667 87.466667 0s23.466667 64 0 87.466667c-34.133333 34.133333-34.133333 91.733333 0 125.866667L663.466667 704c36.266667 34.133333 91.733333 34.133333 125.866666 0 34.133333-34.133333 34.133333-91.733333 0-125.866667L746.666667 533.333333c-23.466667-23.466667-23.466667-64 0-87.466666 23.466667-23.466667 64-23.466667 87.466666 0l44.8 44.8c78.933333 83.2 78.933333 215.466667-4.266666 298.666666z"  horiz-adv-x="1024" />

    
    <glyph glyph-name="upload1" unicode="&#58968;" d="M1067.453217 563.645217v-576.244869c0-44.121043-35.884522-80.272696-80.005565-80.272696H80.272696a80.406261 80.406261 0 0 0-80.050087 80.272696V563.645217h1067.186087zM746.184348 437.871304l-109.389913-104.403478a43.186087 43.186087 0 0 1 0-62.775652 48.306087 48.306087 0 0 1 65.758608 0l30.007653 28.672v-204.889044c0-24.397913 20.925217-44.388174 46.480695-44.388173 25.555478 0 46.480696 19.990261 46.480696 44.388173v204.889044l30.007652-28.672a48.306087 48.306087 0 0 1 65.758609 0 42.963478 42.963478 0 0 1 0 62.775652l-109.345391 104.403478a48.306087 48.306087 0 0 1-65.758609 0zM431.816348 895.777391c39.490783 0 71.546435-32.055652 71.546435-71.68v-65.135304h364.944695a76.132174 76.132174 0 0 0 7.257044 0.356174h120.921043c39.134609 0 71.234783-32.055652 71.323826-71.279304v-71.457392H0.623304v207.471305C0.578783 863.588174 32.50087 895.777391 72.125217 895.777391z"  horiz-adv-x="1068" />

    
    <glyph glyph-name="save" unicode="&#58966;" d="M815.872-83.84h2.133333-4.266666 2.133333z m2.133333 0h-4.266666 4.266666zM815.274667 367.36s31.872-29.312 89.685333-45.653333c69.418667-19.584 114.133333-12.586667 114.133333-12.586667s-0.512-52.906667-16.298666-146.432c-16.853333-99.84-69.290667-157.312-110.08-179.328-39.253333-21.205333-69.888-23.424-76.245334-23.637333h-2.389333c-6.314667 0.213333-36.992 2.474667-76.245333 23.68-40.746667 22.016-93.269333 79.488-110.08 179.328-14.506667 86.016-16.085333 137.685333-16.256 145.408v1.024s44.672-7.04 114.090666 12.544c57.856 16.341333 89.685333 45.653333 89.685334 45.653333z m116.352-115.797333a16.64 16.64 0 0 1-23.552-1.365334l-103.04-115.626666-49.92 51.285333a16.384 16.384 0 0 1-24.96-1.706667l-2.389334-3.242666a18.176 18.176 0 0 1 1.664-23.424l65.152-66.944a16.384 16.384 0 0 1 24.96 1.749333l2.346667 3.242667a18.261333 18.261333 0 0 1 1.322667 2.090666l111.957333 125.781334a18.176 18.176 0 0 1 0.341333 23.808l-2.261333 2.645333a16.64 16.64 0 0 1-1.621333 1.706667zM896.810667 896a81.792 81.792 0 0 0 81.493333-81.493333v-244.608a81.792 81.792 0 0 0-81.493333-81.536H81.536A81.792 81.792 0 0 0 0 569.856V814.506667A81.792 81.792 0 0 0 81.493333 896zM203.818667 814.506667a122.282667 122.282667 0 1 1 0-244.608 122.282667 122.282667 0 0 1 0 244.565333zM590.250667 161.28c-14.165333 84.181333-18.090667 140.928-19.072 164.053333H81.493333A81.792 81.792 0 0 1 0 243.84v-244.650667a81.792 81.792 0 0 1 81.493333-81.493333h732.245334c-7.765333 0.256-44.416 2.986667-91.392 28.373333-48.938667 26.368-111.872 95.402667-132.096 215.210667z m-386.432-162.133333a122.282667 122.282667 0 1 0 0 244.608 122.282667 122.282667 0 0 0 0-244.565334z"  horiz-adv-x="1024" />

    
    <glyph glyph-name="Unfold" unicode="&#58965;" d="M781.945905 896H33.743238a33.01181 33.01181 0 0 1-33.060571-33.060571v-98.986667c0-18.285714 14.774857-33.060571 33.060571-33.060572h748.202667a33.01181 33.01181 0 0 1 33.011809 33.060572V862.939429a33.060571 33.060571 0 0 1-33.011809 33.011809M33.694476 323.730286h649.264762a33.060571 33.060571 0 0 1 33.01181 33.060571v98.986667a33.01181 33.01181 0 0 1-33.01181 33.011809H33.645714a33.01181 33.01181 0 0 1-33.011809-33.011809v-98.986667c0-18.236952 14.823619-33.060571 33.011809-33.060571M781.945905 81.67619H33.743238a33.01181 33.01181 0 0 1-33.060571-33.011809v-98.986667c0-18.285714 14.774857-33.060571 33.060571-33.060571h748.202667a33.01181 33.01181 0 0 1 33.011809 33.060571v98.986667a33.060571 33.060571 0 0 1-33.011809 33.011809M881.761524 639.366095l274.578286-211.968c15.11619-11.459048 14.140952-31.98781 0-44.227047l-274.529524-212.016762c-15.311238-12.288-44.27581-5.36381-44.27581 31.353904V608.109714c0 44.470857 28.964571 44.373333 44.227048 31.256381"  horiz-adv-x="1170" />

    
    <glyph glyph-name="close" unicode="&#58964;" d="M512 808.533c-234.667 0-426.667-192-426.667-426.666S277.333-44.8 512-44.8s426.667 192 426.667 426.667S746.667 808.533 512 808.533z m174.933-593.066c-8.533-8.534-25.6-8.534-34.133 0l-134.4 134.4-134.4-134.4c-8.533-8.534-25.6-8.534-34.133 0-8.534 8.533-8.534 25.6 0 34.133l134.4 134.4-134.4 134.4c-8.534 8.533-8.534 25.6 0 34.133 8.533 8.534 25.6 8.534 34.133 0l134.4-134.4 134.4 134.4c8.533 8.534 25.6 8.534 34.133 0 8.534-8.533 8.534-25.6 0-34.133L552.533 384l134.4-134.4c10.667-10.667 10.667-25.6 0-34.133z"  horiz-adv-x="1024" />

    
    <glyph glyph-name="filter" unicode="&#58963;" d="M936.533 712.533c0-17.066-14.933-32-32-32H499.2c-14.933-44.8-55.467-78.933-106.667-78.933s-91.733 32-106.666 78.933h-166.4c-17.067 0-32 14.934-32 32s14.933 32 32 32h166.4c12.8 44.8 55.466 78.934 104.533 78.934s91.733-32 106.667-78.934H902.4c19.2 0 34.133-14.933 34.133-32z m0-659.2c0-17.066-14.933-32-32-32H665.6c-14.933-44.8-55.467-78.933-106.667-78.933s-91.733 32-106.666 78.933h-332.8c-17.067 0-32 14.934-32 32s12.8 32 29.866 32h332.8c14.934 44.8 55.467 78.934 106.667 78.934s91.733-32 106.667-78.934H902.4c19.2 0 34.133-14.933 34.133-32z m0 330.667c0-17.067-14.933-32-32-32H806.4c-14.933-44.8-55.467-78.933-106.667-78.933S608 305.067 593.067 352H117.333c-17.066 0-32 14.933-32 32s14.934 32 32 32h475.734c14.933 44.8 55.466 78.933 106.666 78.933s91.734-32 106.667-78.933h98.133c17.067 0 32-14.933 32-32z"  horiz-adv-x="1024" />

    
    <glyph glyph-name="exitscreen" unicode="&#58962;" d="M640 469.333h256c23.467 0 42.667 19.2 42.667 42.667s-19.2 42.667-42.667 42.667H742.4l183.467 183.466c17.066 17.067 14.933 42.667 0 59.734-17.067 17.066-42.667 17.066-59.734 0L682.667 614.4V768c0 23.467-19.2 42.667-42.667 42.667s-42.667-19.2-42.667-42.667v-256c0-23.467 19.2-42.667 42.667-42.667zM85.333 512c0-23.467 19.2-42.667 42.667-42.667h256c23.467 0 42.667 19.2 42.667 42.667V768c0 23.467-19.2 42.667-42.667 42.667s-42.667-19.2-42.667-42.667v-153.6L157.867 797.867c-17.067 17.066-42.667 14.933-59.734 0s-17.066-42.667 0-59.734L281.6 554.667H128c-23.467 0-42.667-19.2-42.667-42.667z m512-512c0-23.467 19.2-42.667 42.667-42.667s42.667 19.2 42.667 42.667V153.6l183.466-183.467c17.067-17.066 42.667-14.933 59.734 0 17.066 17.067 17.066 42.667 0 59.734L744.533 213.333h153.6c23.467 0 42.667 19.2 42.667 42.667s-19.2 42.667-42.667 42.667H640c-23.467 0-42.667-19.2-42.667-42.667v-256zM128 213.333h153.6L98.133 29.867c-17.066-17.067-14.933-42.667 0-59.734 17.067-17.066 42.667-17.066 59.734 0L341.333 153.6V0c0-23.467 19.2-42.667 42.667-42.667s42.667 19.2 42.667 42.667V256c0 23.467-19.2 42.667-42.667 42.667H128c-23.467 0-42.667-19.2-42.667-42.667s19.2-42.667 42.667-42.667z"  horiz-adv-x="1024" />

    
    <glyph glyph-name="Key" unicode="&#58959;" d="M796.501333 519.253333v-199.68h682.666667v199.68zM938.666667 384v-169.728h199.68V384H938.666667z m259.584 0v-219.648h199.68V384h-199.68z m-296.96 39.424a426.325333 426.325333 0 0 1-429.226667 429.226667A426.325333 426.325333 0 0 1 42.666667 423.509333a426.325333 426.325333 0 0 1 429.312-429.312 426.325333 426.325333 0 0 1 429.312 429.226667z m-658.944 0a225.621333 225.621333 0 0 0 229.632 229.546667 225.621333 225.621333 0 0 0 229.632-229.546667 225.621333 225.621333 0 0 0-229.546667-229.632A225.621333 225.621333 0 0 0 242.346667 423.253333z"  horiz-adv-x="1536" />

    
    <glyph glyph-name="notice11" unicode="&#58960;" d="M511.431111 895.601778a510.976 510.976 0 0 0 510.919111-510.976 510.976 510.976 0 0 0-510.976-510.976A510.976 510.976 0 0 0 0.398222 384.568889 510.976 510.976 0 0 0 511.374222 895.601778z m0-204.401778a51.086222 51.086222 0 0 1-51.2-51.086222v-408.803556a51.086222 51.086222 0 1 1 102.229333 0V640.113778A51.086222 51.086222 0 0 1 511.431111 691.2z m0-664.234667a51.086222 51.086222 0 1 1 0 102.172445 51.086222 51.086222 0 0 1 0-102.172445z"  horiz-adv-x="1024" />

    
    <glyph glyph-name="Avatarupload" unicode="&#58961;" d="M855.412364 296.96a202.938182 202.938182 0 1 0-405.969455 0 202.938182 202.938182 0 0 0 405.876364 0m393.867636 400.104727H913.873455l-9.960728 78.289455a80.989091 80.989091 0 0 1-80.989091 80.989091H477.556364a80.989091 80.989091 0 0 1-80.989091-80.989091l-9.960728-78.196364H53.992727c-29.789091 0-53.992727-22.807273-53.992727-52.689454v-696.133819c0-29.789091 24.203636-55.296 53.992727-55.296h1195.287273c29.789091 0 53.992727 25.506909 53.992727 55.296V644.468364c0 29.789091-24.203636 52.596364-53.992727 52.596363z m-597.364364-732.625454a331.962182 331.962182 0 1 0 0 663.831272 331.962182 331.962182 0 0 0 0-663.831272m589.265455 589.730909H957.905455v83.595636h283.275636v-83.595636zM855.505455 296.96a202.938182 202.938182 0 1 0-405.969455 0 202.938182 202.938182 0 0 0 405.876364 0m393.867636 400.104727H913.873455l-9.960728 78.289455a80.989091 80.989091 0 0 1-80.989091 80.989091H477.556364a80.989091 80.989091 0 0 1-80.989091-80.989091l-9.960728-78.196364H53.992727c-29.789091 0-53.992727-22.807273-53.992727-52.689454v-696.133819c0-29.789091 24.203636-55.296 53.992727-55.296h1195.287273c29.789091 0 53.992727 25.506909 53.992727 55.296V644.468364c0 29.789091-24.203636 52.596364-53.992727 52.596363z m-597.364364-732.625454a331.962182 331.962182 0 1 0 0 663.831272 331.962182 331.962182 0 0 0 0-663.831272m589.265455 589.730909H957.905455v83.595636h283.275636v-83.595636z"  horiz-adv-x="1303" />

    
    <glyph glyph-name="up" unicode="&#58952;" d="M653.594027 422.741333v-494.336a49.92 49.92 0 0 0-49.834667-49.749333H404.676693a49.92 49.92 0 0 0-49.749333 49.749333V422.741333H135.27936a49.749333 49.749333 0 0 0-35.157333 85.162667L473.028693 880.469333a49.749333 49.749333 0 0 0 70.229334 0L915.908693 507.733333a49.749333 49.749333 0 0 0-35.413333-84.906666h-226.986667z"  horiz-adv-x="1024" />

    
    <glyph glyph-name="down" unicode="&#58958;" d="M653.50656 345.258667V839.68a49.92 49.92 0 0 1-49.834667 49.749333H404.589227a49.92 49.92 0 0 1-49.749334-49.749333v-494.336H135.191893a49.749333 49.749333 0 0 1-35.157333-85.162667l372.906667-372.565333a49.749333 49.749333 0 0 1 70.229333 0L915.821227 260.266667a49.749333 49.749333 0 0 1-35.413334 84.906666h-226.986666z"  horiz-adv-x="1024" />

    
    <glyph glyph-name="Defaultavatar" unicode="&#58954;" d="M747.76381 659.21219a236.251429 236.251429 0 1 0-472.502858 0 236.251429 236.251429 0 0 0 472.502858 0zM851.577905 99.913143c0-162.084571-152.283429-184.32-340.065524-184.32S171.495619-62.171429 171.495619 99.913143c0 162.03581 152.234667 293.449143 340.016762 293.449143 187.830857 0 340.065524-131.364571 340.065524-293.449143z"  horiz-adv-x="1024" />

    
    <glyph glyph-name="Contractcall" unicode="&#58955;" d="M545.792-102.4c-260.380444 0-472.746667 211.854222-472.746667 472.803556v33.962666h438.840889V843.207111h33.905778c260.437333 0 472.803556-211.797333 472.803556-472.177778 0-260.437333-211.797333-473.429333-472.746667-473.429333zM142.051556 336.497778c17.009778-207.758222 191.943111-371.598222 403.740444-371.598222 223.573333 0 405.504 181.987556 405.504 405.504 0 211.854222-163.84 386.787556-371.484444 403.740444v-437.646222H141.994667zM439.296 895.886222v-438.897778H0.455111A438.613333 438.613333 0 0 0 439.296 895.886222z"  horiz-adv-x="1024" />

    
    <glyph glyph-name="icon_left" unicode="&#58956;" d="M510.976 385.024l2.56-2.56-2.56 2.56z m2.304 0.256l-2.56-2.56c0.9472 0.768 1.792 1.6128 2.56 2.56zM512 896C229.248 896 0 666.752 0 384s229.248-512 512-512 512 229.248 512 512S794.752 896 512 896z m133.4784-753.152a36.8384 36.8384 0 0 0-51.7632 0l-189.3632 189.3888-24.576 24.576-2.5088 2.5088a36.1984 36.1984 0 0 0-9.4976 24.576 35.8912 35.8912 0 0 0 9.6 24.9088l2.048 2.048 24.9344 24.9088 189.3632 189.3888a36.608 36.608 0 0 0 51.6608 0.1024 36.8384 36.8384 0 0 0 0-51.7632L455.9872 384l189.4912-189.3632a36.8384 36.8384 0 0 0 0-51.7888z"  horiz-adv-x="1024" />

    
    <glyph glyph-name="icon_rigiht" unicode="&#58957;" d="M513.024 385.024l-2.56-2.56 2.56 2.56z m-2.304 0.256l2.56-2.56a26.5728 26.5728 0 0 0-2.56 2.56zM512 896c282.752 0 512-229.248 512-512s-229.248-512-512-512S0 101.248 0 384 229.248 896 512 896z m-133.4784-753.152a36.8384 36.8384 0 0 1 51.7632 0l189.3632 189.3888 24.576 24.576 2.5088 2.5088c5.9648 6.5024 9.4976 15.0784 9.4976 24.576a35.8912 35.8912 0 0 1-9.6 24.9088l-2.048 2.048-24.9344 24.9088-189.3632 189.3888a36.608 36.608 0 0 1-51.6608 0.1024 36.8384 36.8384 0 0 1 0-51.7632L567.9872 384l-189.4656-189.3632a36.8384 36.8384 0 0 1 0-51.7888z"  horiz-adv-x="1024" />

    
    <glyph glyph-name="search_all" unicode="&#58943;" d="M834.290526 132.527158l141.527579-147.725474c24.737684-24.576 24.737684-67.745684 0-92.321684l6.25179 6.251789a59.445895 59.445895 0 0 0-86.231579 0l-147.779369 153.977264c-73.781895-49.259789-166.211368-80.033684-258.479158-80.033685-252.496842-0.161684-461.770105 209.111579-461.770105 461.554527C27.809684 686.565053 230.992842 896 483.328 896c252.496842 0 461.770105-209.434947 461.770105-461.770105a465.111579 465.111579 0 0 0-110.807579-301.702737z m-344.710737-67.745684c203.021474 0 369.286737 166.265263 369.286737 369.448421 0 203.237053-166.265263 369.502316-369.502315 369.502316-203.183158 0-369.448421-166.265263-369.448422-369.502316 0.161684-203.183158 166.426947-369.448421 369.664-369.448421z"  horiz-adv-x="1024" />

    
    <glyph glyph-name="Nodestorage" unicode="&#58944;" d="M71.111111-57.344V896H0v-1024h1024v70.656zM951.978667 749.738667l-366.819556-366.933334-222.890667 147.456-216.007111-292.522666v-219.477334h805.717334z"  horiz-adv-x="1024" />

    
    <glyph glyph-name="Nodecirculation" unicode="&#58953;" d="M354.759111 658.432a177.208889 177.208889 0 0 1-177.436444 176.810667A177.208889 177.208889 0 0 1 0 658.432c0-47.502222 18.830222-90.567111 49.550222-122.538667a468.081778 468.081778 0 0 1 209.408-506.88l35.669334 145.351111a329.159111 329.159111 0 0 0-114.005334 307.2 177.038222 177.038222 0 0 1 174.136889 176.867556z m152.120889 98.986667c61.269333 0 118.897778-16.839111 168.163556-45.511111a181.248 181.248 0 0 1-11.946667-63.943112c0-97.678222 79.587556-176.810667 177.265778-176.810666A177.436444 177.436444 0 0 1 1017.742222 647.964444c0 97.336889-79.189333 176.355556-177.322666 176.355556-22.755556 0-44.828444-4.380444-65.194667-12.401778A469.902222 469.902222 0 0 1 506.481778 895.772444C440.490667 895.772444 375.466667 882.005333 316.302222 855.722667L397.653333 738.417778a320.853333 320.853333 0 0 0 109.283556 19.000889z m330.695111-345.258667a329.102222 329.102222 0 0 0-176.184889-276.935111 177.038222 177.038222 0 0 1-158.094222 96.597333 177.095111 177.095111 0 0 1-177.322667-176.867555c0-97.28 79.644444-176.810667 177.322667-176.810667a178.176 178.176 0 0 1 163.726222 108.202667c180.906667 65.308444 310.328889 238.193778 310.328889 441.002666 0 10.296889-0.568889 20.764444-1.308444 31.061334l-138.467556-46.250667z"  horiz-adv-x="1024" />

    
    <glyph glyph-name="input_xiala1" unicode="&#58941;" d="M460.8 104.533333c14.933333-14.933333 34.133333-27.733333 51.2-23.466666 19.2-2.133333 36.266667 10.666667 51.2 23.466666l443.733333 445.866667c23.466667 23.466667 23.466667 59.733333 0 81.066667-23.466667 23.466667-59.733333 23.466667-81.066666 0L512 209.066667 98.133333 631.466667c-23.466667 23.466667-59.733333 23.466667-81.066666 0s-23.466667-59.733333 0-81.066667l443.733333-445.866667z"  horiz-adv-x="1024" />

    
    <glyph glyph-name="data1" unicode="&#58951;" d="M761.675294 895.036235c24.395294 0 44.152471-19.817412 44.152471-44.15247l-0.060236-30.479059h77.522824l0.783059-0.180706a191.427765 191.427765 0 0 0 144.624941-58.066824c35.599059-37.466353 55.115294-87.341176 54.512941-138.962823v-535.913412a212.630588 212.630588 0 0 0-49.633882-138.541176 175.465412 175.465412 0 0 0-134.866824-61.801412H209.618824a215.943529 215.943529 0 0 0-144.26353 58.066823A197.150118 197.150118 0 0 0 0 87.521882V623.495529C0 719.691294 76.016941 802.635294 172.393412 817.874824a45.176471 45.176471 0 0 0 17.347764 2.469647h80.112942V850.944a44.152471 44.152471 0 0 0 88.304941 0v-30.479059h135.529412V850.823529a44.152471 44.152471 0 1 0 88.304941 0v-30.479058h135.529412V850.823529c0 24.335059 19.757176 44.152471 44.15247 44.152471z m122.578824-162.996706l-0.963765-0.12047h-77.522824l0.060236-30.358588a44.152471 44.152471 0 0 0-88.304941 0v30.418823h-135.529412v-30.418823a44.152471 44.152471 0 0 0-88.304941 0v30.418823h-135.529412v-30.418823a44.152471 44.152471 0 0 0-88.244706 0l-0.060235 30.418823H204.197647c-62.584471 0-114.868706-49.814588-114.868706-108.784941v-535.913412c0-57.946353 59.030588-112.64 121.615059-112.64h689.091765c54.693647 0 96.075294 48.429176 96.075294 112.64V623.134118a106.014118 106.014118 0 0 1-105.652706 108.724706 44.333176 44.333176 0 0 0-6.204235 0.12047z m-570.24753-508.506353a44.272941 44.272941 0 0 0 6.324706-87.642352l-6.324706-0.783059H239.375059a44.272941 44.272941 0 0 0-6.264471 87.642353l6.264471 0.783058h74.691765z m261.12 0a44.272941 44.272941 0 0 0 6.02353-88.304941l-6.02353-0.12047H500.555294a44.272941 44.272941 0 0 0-6.083765 88.365176l6.02353 0.060235h74.571294z m261.180236 0a44.272941 44.272941 0 0 0 6.26447-87.642352l-6.26447-0.783059h-74.63153a44.272941 44.272941 0 0 0-6.26447 87.642353l6.26447 0.783058h74.691765z m-522.24 149.202824a44.272941 44.272941 0 0 0 6.26447-87.642353l-6.324706-0.783059H239.375059A44.272941 44.272941 0 0 0 233.110588 371.952941l6.264471 0.783059h74.691765z m261.059764 0a44.272941 44.272941 0 0 0 6.02353-88.365176l-6.02353-0.060236H500.555294A44.272941 44.272941 0 0 0 494.531765 372.555294l6.023529 0.120471h74.571294z m261.180236 0a44.272941 44.272941 0 0 0 6.26447-87.642353l-6.26447-0.783059h-74.63153a44.272941 44.272941 0 0 0-6.26447 87.642353l6.26447 0.783059h74.691765zM314.066824 521.938824a44.272941 44.272941 0 0 0 6.26447-87.642353l-6.324706-0.783059H239.375059a44.272941 44.272941 0 0 0-6.264471 87.642353l6.264471 0.783059h74.691765z m261.059764 0a44.272941 44.272941 0 0 0 6.02353-88.304942l-6.02353-0.12047H500.555294A44.272941 44.272941 0 0 0 494.531765 521.938824l6.023529 0.060235h74.571294z m261.180236 0a44.272941 44.272941 0 0 0 6.26447-87.642353l-6.26447-0.783059h-74.63153a44.272941 44.272941 0 0 0-6.26447 87.642353l6.26447 0.783059h74.691765z"  horiz-adv-x="1084" />

    
    <glyph glyph-name="notice1" unicode="&#58950;" d="M896 138.666667h-96V407.466667c0 130.133333-74.666667 275.2-183.466667 275.2V776.533333c172.8 0 279.466667-192 279.466667-369.066666v-268.8z m-678.4 0H123.733333V407.466667c0 179.2 106.666667 369.066667 275.2 369.066666v-96c-106.666667 0-179.2-145.066667-179.2-275.2v-266.666666zM462.933333 861.866667h96V576h-96V861.866667zM32 138.666667h953.6c23.466667-8.533333 36.266667-25.6 36.266667-46.933334 0-23.466667-12.8-38.4-36.266667-46.933333H32c-21.333333 12.8-32 27.733333-32 46.933333 0 19.2 10.666667 36.266667 32 46.933334zM366.933333-23.466667h285.866667c14.933333-6.4 21.333333-19.2 21.333333-36.266666 0-17.066667-6.4-27.733333-21.333333-36.266667H366.933333c-17.066667 8.533333-25.6 19.2-25.6 36.266667 0 17.066667 8.533333 29.866667 25.6 36.266666z"  horiz-adv-x="1024" />

    
    <glyph glyph-name="admin1" unicode="&#58937;" d="M164.756211-115.226947A138.186105 138.186105 0 0 0 26.947368 22.581895c0 9.162105 0 20.641684 2.317474 29.803789a429.487158 429.487158 0 0 0 286.989474 316.254316A297.498947 297.498947 0 0 0 210.728421 596.722526 297.984 297.984 0 0 0 509.305263 895.299368a297.984 297.984 0 0 0 298.576842-298.576842 297.714526 297.714526 0 0 0-105.202526-227.813052c142.389895-46.133895 254.760421-164.271158 286.61221-316.52379 16.060632-73.458526-29.857684-146.970947-105.633684-165.349052-6.898526-1.724632-15.090526-2.155789-22.635789-2.263579H164.756211z m401.893052 413.372631h-114.795789c-158.450526 0-298.576842-110.214737-333.069474-266.401684a46.726737 46.726737 0 0 1 34.492632-55.134316h310.002526v160.768c0 25.276632 20.695579 45.918316 45.97221 45.918316s45.918316-20.641684 45.918316-45.918316v-160.714105h298.576842c25.276632 0 45.918316 18.324211 45.918316 45.918316v11.479579c-34.438737 153.869474-172.247579 264.084211-333.015579 264.08421zM509.305263 803.408842a205.877895 205.877895 0 0 1-206.686316-206.686316 205.877895 205.877895 0 0 1 206.686316-206.686315 205.877895 205.877895 0 0 1 206.686316 206.686315A205.877895 205.877895 0 0 1 509.305263 803.408842z"  horiz-adv-x="1024" />

    
    <glyph glyph-name="activated" unicode="&#58936;" d="M512 810.667c236.8 0 426.667-192 426.667-426.667S746.667-42.667 512-42.667 85.333 149.333 85.333 384 277.333 810.667 512 810.667z m234.667-262.4l-294.4-245.334-128 138.667-40.534-38.4 162.134-181.333L785.067 512l-38.4 36.267z"  horiz-adv-x="1024" />

    
    <glyph glyph-name="Disable1" unicode="&#58938;" d="M512-42.667c-236.8 0-426.667 192-426.667 426.667S275.2 810.667 512 810.667s426.667-192 426.667-426.667-192-426.667-426.667-426.667z m0 61.867c200.533 0 364.8 164.267 364.8 364.8S712.533 748.8 512 748.8 147.2 584.533 147.2 384 309.333 19.2 512 19.2zM194.133 659.2l42.667 42.667L829.867 108.8 787.2 66.133z"  horiz-adv-x="1024" />

    
    <glyph glyph-name="add" unicode="&#58930;" d="M590.116571-49.810286a78.189714 78.189714 0 0 0-156.379428 0V817.737143a78.189714 78.189714 0 1 0 156.379428 0V-49.737143z m355.693715 512a78.189714 78.189714 0 0 0 0-156.379428H78.116571a78.189714 78.189714 0 1 0 0 156.379428h867.693715z"  horiz-adv-x="1024" />

    
    <glyph glyph-name="create" unicode="&#58931;" d="M990.776889 320.739556h-415.516445v-415.516445c0-17.635556-14.279111-31.971556-31.914666-31.971555H479.402667a31.971556 31.971556 0 0 0-31.971556 31.971555v415.516445H31.971556A31.971556 31.971556 0 0 0 0 352.654222V416.597333c0 17.635556 14.336 31.971556 31.971556 31.971556h415.459555V864.028444c0 17.635556 14.336 31.971556 31.971556 31.971556h63.943111c17.635556 0 31.914667-14.336 31.914666-31.971556v-415.459555h415.516445c17.635556 0 31.971556-14.336 31.971555-31.971556v-63.943111c0-17.635556-14.336-31.914667-31.971555-31.914666z"  horiz-adv-x="1024" />

    
    <glyph glyph-name="delete" unicode="&#58933;" d="M893.818435 722.587826H130.181565a44.343652 44.343652 0 0 1 0-88.598261h31.076174l0.667826-663.373913c0-53.737739 43.497739-97.235478 97.235478-97.235478h505.856a97.235478 97.235478 0 0 1 97.235479 97.235478l0.623304 663.373913h31.076174a44.343652 44.343652 0 1 1-0.133565 88.598261zM441.833739 23.552a23.641043 23.641043 0 0 0-23.418435-23.774609h-15.582608a23.552 23.552 0 0 0-23.462957 23.774609V512.934957c0 13.089391 10.50713 23.774609 23.418435 23.774608h15.62713c12.911304 0 23.418435-10.685217 23.418435-23.774608v-489.382957z m202.662957 0a23.641043 23.641043 0 0 0-23.462957-23.774609h-15.582609a23.552 23.552 0 0 0-23.462956 23.774609V512.934957c0 13.089391 10.50713 23.774609 23.418435 23.774608h15.62713c12.911304 0 23.462957-10.685217 23.462957-23.774608v-489.382957zM410.757565 776.325565h202.306783a44.343652 44.343652 0 0 1 0 88.598261H410.757565a44.343652 44.343652 0 0 1 0-88.598261z"  horiz-adv-x="1024" />

    
    <glyph glyph-name="diaoyong" unicode="&#58934;" d="M960.6656 606.5152L637.0816 884.5824s-48.64 34.7136-60.416-22.1184l-0.3072-135.0656c-0.1024-0.1024-607.0272-29.184-481.28-635.5456 0 0 8.9088-23.0912 20.8384 0 0 0 133.6832 403.2 459.3152 301.6704v-125.1328s5.2224-73.6256 69.376-25.7024l320.256 276.3264s67.9936 37.0176-4.1472 87.5008zM738.304 40.1408H108.6976a82.0736 82.0736 0 1 1 0-164.1984H738.304a82.1248 82.1248 0 0 1 0 164.1984z"  horiz-adv-x="1024" />

    
    <glyph glyph-name="edit" unicode="&#58935;" d="M106.985739-109.790609a39.268174 39.268174 0 0 0-39.17913 39.179131c0 21.949217 17.942261 39.17913 39.17913 39.17913h810.74087c21.904696 0 39.17913-17.897739 39.17913-39.17913 0-21.904696-17.942261-39.17913-39.17913-39.179131H106.941217zM894.441739 767.332174L777.48313 884.290783a37.709913 37.709913 0 0 1-53.158956 0L606.029913 765.996522l170.117565-170.073044 118.294261 118.249739a37.709913 37.709913 0 0 1 0 53.158957z m-323.628522-36.507826l-394.017391-394.106435c-10.685217-10.596174-19.945739-33.836522-19.945739-33.836522L95.721739 108.766609c-4.674783-14.60313 9.305043-27.91513 23.908174-23.908174l192.690087 61.128348s23.28487 8.637217 34.593391 20.613565l394.017392 394.017391-170.073044 170.117565z"  horiz-adv-x="1024" />

    
    <glyph glyph-name="export" unicode="&#58939;" d="M968.523294 287.503059v-276.841412H112.880941v276.841412a56.139294 56.139294 0 0 1-112.218353 0v-322.138353c0-36.864 30.117647-66.981647 66.921412-66.981647h946.236235c36.864 0 66.921412 30.117647 66.921412 66.981647v322.138353a56.139294 56.139294 0 0 1-112.218353 0zM500.976941 878.893176L291.779765 669.696a56.259765 56.259765 0 0 1 0-79.329882 56.259765 56.259765 0 0 1 79.329882 0L480.436706 699.632941v-401.588706c0-33.189647 27.105882-60.235294 60.235294-60.235294s60.235294 27.166118 60.235294 60.235294V699.572706l109.266824-109.327059a56.259765 56.259765 0 0 1 79.329882 0 56.259765 56.259765 0 0 1 0 79.329882L580.306824 878.772706A56.139294 56.139294 0 0 1 500.976941 878.893176z"  horiz-adv-x="1084" />

    
    <glyph glyph-name="fullscreen" unicode="&#58940;" d="M972.8 896h-307.2a51.2 51.2 0 1 1 0-102.4h183.580444l-219.761777-219.818667a51.2 51.2 0 0 1 72.362666-72.362666L921.6 721.180444V537.6a51.2 51.2 0 1 1 102.4 0V844.8a51.2 51.2 0 0 1-51.2 51.2zM409.6 844.8a51.2 51.2 0 0 1-51.2 51.2H51.2a51.484444 51.484444 0 0 1-51.2-51.2v-307.2a51.2 51.2 0 0 1 102.4 0V721.180444l219.818667-219.761777a51.2 51.2 0 0 1 72.362666 72.362666L174.819556 793.6H358.4a51.2 51.2 0 0 1 51.2 51.2zM1024 230.4a51.2 51.2 0 1 1-102.4 0v-183.580444l-219.818667 219.761777a51.2 51.2 0 0 1-72.362666-72.362666l219.761777-219.818667H665.6a51.2 51.2 0 1 1 0-102.4h307.2a51.427556 51.427556 0 0 1 51.2 51.2v307.2zM358.4-25.6H174.819556l219.761777 219.818667a51.2 51.2 0 0 1-72.362666 72.362666L102.4 46.819556V230.4a51.2 51.2 0 1 1-102.4 0v-307.2a51.2 51.2 0 0 1 51.2-51.2h307.2a51.2 51.2 0 1 1 0 102.4z"  horiz-adv-x="1024" />

    
    <glyph glyph-name="Icon-search" unicode="&#58942;" d="M405.488888 94.600039A400.714202 400.714202 0 1 0 405.488888 895.971556a400.714202 400.714202 0 0 0 0-801.371517z m0 89.028638a311.685564 311.685564 0 1 1 0 623.314241 311.685564 311.685564 0 0 1 0-623.314241z m267.256577 110.361379l314.700591-314.814366-62.860476-62.974251-314.814366 314.814366 62.974251 62.974251z"  horiz-adv-x="1028" />

    
    <glyph glyph-name="renwu" unicode="&#58945;" d="M298.24 824.533333a141.482667 141.482667 0 0 1 141.482667-141.482666h141.44a141.482667 141.482667 0 0 1 141.44 141.482666h28.074666c37.632 0 71.850667-14.72 97.194667-38.698666a141.056 141.056 0 0 0 44.245333-102.784v-665.728a141.482667 141.482667 0 0 0-141.44-141.44H270.250667a141.482667 141.482667 0 0 0-141.482667 141.44V683.093333a141.482667 141.482667 0 0 0 141.44 141.482667h28.074667z m0-1.621333h424.362667-424.32z m215.978667-384a35.413333 35.413333 0 0 1 31.573333-53.333333h212.181333a35.413333 35.413333 0 0 1 0 70.698666H545.834667a35.413333 35.413333 0 0 1-31.616-17.322666z m0-212.138667a35.413333 35.413333 0 0 1 31.573333-53.376h212.181333a35.413333 35.413333 0 0 1 0 70.698667H545.834667a35.413333 35.413333 0 0 1-31.616-17.322667zM312.917333 441.6l-25.002666 25.045333a35.413333 35.413333 0 0 1-50.005334-50.048l50.005334-49.962666a35.242667 35.242667 0 0 1 50.005333 0l100.010667 100.010666A35.413333 35.413333 0 1 1 387.925333 516.693333L312.917333 441.6z m0-212.181333l-25.002666 25.045333a35.413333 35.413333 0 0 1-50.005334-50.005333l50.005334-50.005334a35.242667 35.242667 0 0 1 50.005333 0l100.010667 100.010667a35.413333 35.413333 0 1 1-50.005334 50.005333l-75.008-75.008zM581.162667 895.232a70.741333 70.741333 0 1 0 0-141.44H439.722667a70.741333 70.741333 0 0 0 0 141.44h141.44z"  horiz-adv-x="1024" />

    
    <glyph glyph-name="selected" unicode="&#58946;" d="M896.938667 879.445333H119.722667A110.933333 110.933333 0 0 1 8.704 768.426667v-777.386667c0-61.184 49.664-110.933333 110.933333-110.933333h777.386667c61.269333 0 110.933333 49.749333 110.933333 110.933333v777.386667a110.933333 110.933333 0 0 1-110.933333 110.933333z m-19.797334-324.266666L443.989333 122.112a60.928 60.928 0 0 0-42.154666-18.005333 53.248 53.248 0 0 0-42.154667 15.36l-226.133333 226.133333a53.418667 53.418667 0 0 0 75.434666 75.349333L389.290667 240.64l401.152 401.322667a61.44 61.44 0 0 0 86.698666-86.784z"  horiz-adv-x="1024" />

    
    <glyph glyph-name="select" unicode="&#58947;" d="M922.112 871.850667H101.888a77.824 77.824 0 0 1-77.653333-77.738667v-822.869333c0-42.922667 34.730667-77.738667 77.653333-77.738667h822.869333c42.922667 0 77.738667 34.816 77.738667 77.653333V794.197333c0 42.922667-37.546667 77.653333-80.384 77.653334z m26.794667-897.962667a24.064 24.064 0 0 0-23.893334-24.149333H101.888a24.064 24.064 0 0 0-24.149333 23.893333V794.197333c0 13.226667 10.666667 24.064 23.893333 24.149334h823.125333c13.312 0 24.064-10.666667 24.149334-23.893334v-820.48z"  horiz-adv-x="1024" />

    
    <glyph glyph-name="signout" unicode="&#58948;" d="M1015.466667 403.114667L804.238222 614.4a26.510222 26.510222 0 0 1-37.546666 0l-42.666667-42.723556a26.510222 26.510222 0 0 1 0-37.546666l93.184-93.127111H392.419556a26.510222 26.510222 0 0 1-26.510223-26.510223v-60.416c0-14.677333 11.889778-26.510222 26.510223-26.510222h424.561777l-93.184-93.184a26.510222 26.510222 0 0 1 0-37.546666l42.666667-42.666667a26.510222 26.510222 0 0 1 37.546667 0l168.732444 168.732444 42.723556 42.666667a26.510222 26.510222 0 0 1 0 37.546667zM651.548444 895.146667H80.327111C36.408889 895.146667 0.739556 859.534222 0.739556 815.559111v-862.606222c0-43.918222 35.669333-79.530667 79.587555-79.530667h571.164445c43.975111 0 79.587556 35.612444 79.587555 79.530667V64.853333a26.510222 26.510222 0 0 1-26.510222 26.567111h-57.457778a26.510222 26.510222 0 0 1-26.567111-26.567111v-42.552889c0-39.253333 0-39.253333-39.765333-39.253333H149.959111c-39.822222 0-39.822222 0-39.822222 39.822222V746.609778c0 39.879111 0 39.822222 39.822222 39.822222h430.819556c39.822222 0 39.822222-0.341333 39.822222-39.253333v-43.804445c0-14.677333 11.832889-26.567111 26.453333-26.567111h57.457778a26.510222 26.510222 0 0 1 26.567111 26.510222V815.559111c0 43.975111-35.612444 79.587556-79.530667 79.587556z"  horiz-adv-x="1024" />

    
    <glyph glyph-name="upload" unicode="&#58949;" d="M508.527304 559.415652h271.315479L444.416 895.065043v-271.404521c0-35.305739 28.850087-64.24487 64.111304-64.24487z m431.193044-371.311304l-116.201739 116.246261a49.641739 49.641739 0 0 1-69.899131 0l-116.246261-116.201739c-19.144348-19.18887-19.144348-50.754783 0-69.899131 19.144348-19.18887 50.710261-19.18887 69.899131 0l31.877565 31.877565v-228.129391c0-27.158261 22.26087-49.41913 49.41913-49.41913 27.158261 0 49.41913 22.26087 49.419131 49.41913v228.129391l31.833043-31.877565a49.41913 49.41913 0 0 1 69.899131 69.899131zM600.776348 82.454261a94.831304 94.831304 0 0 0 0 133.654261l107.297391 107.297391a93.317565 93.317565 0 0 0 71.902609 43.052522v128.222608H499.622957a120.119652 120.119652 0 0 0-120.119653 120.164174V895.065043H125.952A59.213913 59.213913 0 0 1 66.916174 835.984696v-850.587826c0-32.456348 26.579478-59.035826 59.035826-59.035827h568.230957v132.363131a94.742261 94.742261 0 0 0-93.406609 23.730087z"  horiz-adv-x="1024" />

    
    <glyph glyph-name="xiala_icon" unicode="&#58928;" d="M19.2 546.133333c-23.466667 23.466667-23.466667 59.733333 0 81.066667s59.733333 23.466667 81.066667 0l413.866666-422.4 411.733334 422.4c23.466667 23.466667 59.733333 23.466667 81.066666 0 23.466667-23.466667 23.466667-59.733333 0-81.066667L565.333333 102.4c-14.933333-12.8-32-25.6-49.066666-23.466667-19.2-4.266667-38.4 8.533333-51.2 23.466667L19.2 546.133333z"  horiz-adv-x="1024" />

    
    <glyph glyph-name="shouqi_icon" unicode="&#58929;" d="M462.933333 620.8c14.933333 14.933333 34.133333 27.733333 51.2 23.466667 19.2 2.133333 36.266667-10.666667 49.066667-23.466667l441.6-443.733333c23.466667-23.466667 23.466667-59.733333 0-81.066667-23.466667-23.466667-59.733333-23.466667-81.066667 0L514.133333 518.4 102.4 93.866667c-23.466667-23.466667-59.733333-23.466667-81.066667 0s-23.466667 59.733333 0 81.066666l441.6 445.866667z"  horiz-adv-x="1024" />

    
    <glyph glyph-name="accountnumber" unicode="&#58916;" d="M750.710154 371.396923H269.666462a230.163692 230.163692 0 0 1-230.163693-230.203077v-153.324308a92.356923 92.356923 0 0 1 92.081231-92.08123h757.248a92.356923 92.356923 0 0 1 92.081231 92.08123v153.324308a230.163692 230.163692 0 0 1-230.203077 230.163692z m-240.482462 24.733539a249.934769 249.934769 0 1 1 0 499.869538 249.934769 249.934769 0 0 1 0-499.869538z m101.376 162.658461c0-31.665231-45.410462-57.265231-101.376-57.265231-56.004923 0-101.415385 25.6-101.415384 57.225846s202.791385 31.625846 202.791384 0z"  horiz-adv-x="1024" />

    
    <glyph glyph-name="Depositevidence" unicode="&#58919;" d="M1018.282667 556.842667l0.128 16.469333V573.866667a630.186667 630.186667 0 0 1-6.144 32.256c-2.218667 8.362667-17.792 29.866667-17.792 29.866666l-7.466667 7.936L784.896 858.069333l-5.76 6.016C742.698667 898.133333 696.576 895.146667 696.576 895.146667L689.706667 895.573333H183.210667A183.424 183.424 0 0 1 0 712.192V58.453333a183.594667 183.594667 0 0 1 183.210667-183.552h652.117333a183.594667 183.594667 0 0 1 183.210667 183.552V556.842667h-0.256zM182.314667 797.866667h503.594666v-96.298667a104.96 104.96 0 0 0-104.661333-104.917333H286.976a104.96 104.96 0 0 0-104.661333 104.917333V797.824z m653.738666-825.770667h-353.834666v250.325333H293.248v-250.325333h-110.933333v290.218667c0 46.976 38.186667 85.248 85.034666 85.248h483.413334c46.933333 0 85.077333-38.272 85.077333-85.248v-290.218667h0.213333z"  horiz-adv-x="1024" />

    
    <glyph glyph-name="Putaway" unicode="&#58920;" d="M781.945905 896H33.743238a33.01181 33.01181 0 0 1-33.060571-33.060571v-98.986667c0-18.285714 14.774857-33.060571 33.060571-33.060572h748.202667a33.01181 33.01181 0 0 1 33.011809 33.060572V862.939429a33.060571 33.060571 0 0 1-33.011809 33.011809M33.694476 323.730286h649.264762a33.060571 33.060571 0 0 1 33.01181 33.060571v98.986667a33.01181 33.01181 0 0 1-33.01181 33.011809H33.645714a33.01181 33.01181 0 0 1-33.011809-33.011809v-98.986667c0-18.236952 14.823619-33.060571 33.011809-33.060571M781.945905 81.67619H33.743238a33.01181 33.01181 0 0 1-33.060571-33.011809v-98.986667c0-18.285714 14.774857-33.060571 33.060571-33.060571h748.202667a33.01181 33.01181 0 0 1 33.011809 33.060571v98.986667a33.060571 33.060571 0 0 1-33.011809 33.011809M1123.08419 639.366095l-274.529523-211.968c-15.11619-11.459048-14.140952-31.98781 0-44.227047l274.529523-212.016762c15.262476-12.288 44.227048-5.36381 44.227048 31.353904V608.109714c0 44.470857-28.964571 44.373333-44.227048 31.256381"  horiz-adv-x="1170" />

    
    <glyph glyph-name="Log" unicode="&#58921;" d="M749.410462 443.549538c34.422154 0 67.584-5.789538 98.422153-16.423384V826.88c0 37.809231-30.641231 68.332308-68.332307 68.332308H107.992615C70.183385 895.212308 39.660308 864.571077 39.660308 826.88v-805.336615c0-37.809231 30.641231-68.332308 68.332307-68.332308H514.363077a301.568 301.568 0 0 0 235.086769 490.338461zM151.788308 672.059077c0 24.024615 19.534769 43.480615 43.52 43.480615h487.975384a43.480615 43.480615 0 0 0 0-87.000615H195.347692a43.480615 43.480615 0 0 0-43.52 43.52z m0-213.819077c0 24.064 19.534769 43.480615 43.52 43.480615h285.420307a43.480615 43.480615 0 0 0 0-86.96123H195.308308a43.480615 43.480615 0 0 0-43.52 43.480615z m261.868307-213.819077c0-24.024615-19.534769-43.480615-43.52-43.480615h-174.867692a43.480615 43.480615 0 0 0 0 87.000615h174.867692c23.985231 0 43.52-19.534769 43.52-43.52zM749.410462 375.099077a233.156923 233.156923 0 1 1 0.039384-466.313846 233.156923 233.156923 0 0 1 0 466.313846z m143.28123-253.44c0-14.572308-11.815385-26.387692-26.387692-26.387692h-124.612923a26.387692 26.387692 0 0 0-26.387692 26.387692v170.929231a26.387692 26.387692 0 1 0 52.775384 0v-144.541539h98.107077c14.572308 0 26.505846-11.854769 26.505846-26.387692z"  horiz-adv-x="1024" />

    
    <glyph glyph-name="Smartcontract" unicode="&#58922;" d="M1053.486354 199.672702L566.445566-3.121327 62.462609 206.933631A45.101541 45.101541 0 0 1 27.926651 123.712212l521.576746-217.036621a44.496463 44.496463 0 0 1 34.815225 0l503.657146 209.775692a45.101541 45.101541 0 0 1-34.489414 83.221419zM27.926651 598.930718l521.576746-217.641698a44.496463 44.496463 0 0 1 34.815225 0l503.657146 211.916735a45.427352 45.427352 0 0 1 0 83.54723L566.445566 892.579451a48.406195 48.406195 0 0 1-35.746113 0L28.252462 684.013914a44.822274 44.822274 0 0 1-24.528909-25.459796 45.101541 45.101541 0 0 1 24.203098-59.576855z m133.48939 40.260922h4.654442-4.654442zM1053.486354 430.626103L566.445566 227.832075 62.462609 437.607766A45.101541 45.101541 0 0 1 27.926651 354.339802L549.503397 137.303182a44.496463 44.496463 0 0 1 34.815225 0l503.657146 209.775691a45.101541 45.101541 0 0 1-34.489414 83.267964v0.279266z"  horiz-adv-x="1117" />

    
    <glyph glyph-name="task" unicode="&#58923;" d="M906.24 895.701333H114.090667A113.493333 113.493333 0 0 1 0.853333 782.549333v-792.149333a113.493333 113.493333 0 0 1 113.194667-113.152H906.24a113.493333 113.493333 0 0 1 113.152 113.152V782.549333A113.493333 113.493333 0 0 1 906.24 895.701333zM340.394667 103.552H227.242667V499.626667h113.152v-396.074667z m226.346666 0H453.546667V669.44h113.152v-565.845333z m226.346667 0h-113.194667v226.346667h113.194667v-226.346667z"  horiz-adv-x="1024" />

    
    <glyph glyph-name="Additionalfeatures" unicode="&#58924;" d="M840.097185 895.506963c66.74963 0 121.362963-54.613333 121.362963-121.362963v-768.606815c0-66.74963-54.613333-121.362963-121.362963-121.362963H179.38963a121.742222 121.742222 0 0 0-121.362963 121.362963V774.181926c0 66.74963 54.613333 121.362963 121.362963 121.362963z m-167.215407-598.698667a133.802667 133.802667 0 0 1-133.499259-133.499259 133.802667 133.802667 0 0 1 133.499259-133.499259c30.340741 0 58.026667 9.443556 80.251259 26.282666l58.671407-58.633481a19.114667 19.114667 0 0 1 26.927408 0 19.114667 19.114667 0 0 1 0 26.927407l-58.633482 58.671408a136.078222 136.078222 0 0 1 26.320593 80.251259 133.802667 133.802667 0 0 1-133.499259 133.499259z m0-37.774222c52.603259 0 95.080296-42.477037 95.080296-96.407704 0-20.897185-6.750815-41.111704-18.887111-57.306074l-8.078222-10.808889-10.770963-8.078222c-16.877037-12.136296-36.408889-18.887111-57.344-18.887111a95.232 95.232 0 0 0-95.725037 95.762963 95.687111 95.687111 0 0 0 95.725037 95.725037z m-88.974222 184.737185H266.998519c-18.204444 0-26.927407-8.722963-26.927408-26.927407s8.722963-27.003259 26.927408-27.003259h316.909037c18.204444 0 26.927407 8.760889 26.927407 26.965333s-8.722963 26.965333-26.927407 26.965333z m175.293629 215.798519h-485.451852c-18.204444 0-26.965333-8.798815-26.965333-27.003259s8.760889-26.927407 26.965333-26.927408h485.451852c18.204444 0 26.965333 8.722963 26.965334 26.927408s-8.722963 26.965333-26.927408 26.965333z"  horiz-adv-x="1024" />

    
    <glyph glyph-name="user-guanli" unicode="&#58925;" d="M531.741722 364.428927a420.478692 420.478692 0 0 0 118.558267-16.851571 51.109321 51.109321 0 0 1 30.631464 97.056516 249.317926 249.317926 0 0 1 85.836356 187.500391 251.365711 251.365711 0 1 1-502.219476 0 248.805979 248.805979 0 0 1 93.515553-195.136926A537.50112 537.50112 0 0 1 0.38396-70.384266c0-28.199717 22.909604-51.066659 51.109321-51.066659h255.461283a51.109321 51.109321 0 0 1 0 102.175981H105.631619a431.741514 431.741514 0 0 0 426.110103 383.703871z m-16.339624 416.937728a149.189731 149.189731 0 1 0 1.023892-298.422123 149.189731 149.189731 0 0 0-1.023892 298.422123zM613.482507 236.186339c0-28.199717 22.909604-51.109321 51.109321-51.109322h306.570605a51.109321 51.109321 0 1 1 0 102.218643h-306.570605c-28.199717 0-51.066659-22.909604-51.066659-51.109321z m357.679926-102.175981h-306.570605a51.109321 51.109321 0 1 1 0-102.175981h306.570605a51.109321 51.109321 0 1 1 0 102.175981z m0-159.42866h-306.570605a51.109321 51.109321 0 0 1 0-102.17598h306.570605a51.109321 51.109321 0 1 1 0 102.17598z"  horiz-adv-x="1025" />

    
    <glyph glyph-name="home" unicode="&#58926;" d="M1060.418783 389.832348L569.61113 880.64a50.398609 50.398609 0 0 1-71.234782 0L7.657739 389.832348a23.462957 23.462957 0 0 1 16.562087-39.980522h117.003131v-345.933913a122.790957 122.790957 0 0 1 122.746434-122.790956h123.503305c27.158261 0 49.107478 21.993739 49.107478 49.107478v244.646956c0 13.534609 11.041391 24.576 24.576 24.576h146.298435c13.534609 0 24.576-11.041391 24.576-24.576v-244.646956c0-27.158261 21.949217-49.107478 49.107478-49.107478h123.236174a122.790957 122.790957 0 0 1 122.790956 122.746434V349.718261h116.736a23.507478 23.507478 0 0 1 16.562087 40.114087z"  horiz-adv-x="1068" />

    
    <glyph glyph-name="information" unicode="&#58927;" d="M100.565333 896A99.84 99.84 0 0 1 0.768 796.16V11.52a99.84 99.84 0 0 1 99.84-99.84h823.381333a99.84 99.84 0 0 1 99.84 99.84v399.232h-44.970666a54.613333 54.613333 0 0 0-54.869334 54.869333V605.312a54.613333 54.613333 0 0 0 54.869334 54.912h44.928v-11.733333a119.552 119.552 0 0 1-34.432 84.565333l-126.72 126.293333A124.714667 124.714667 0 0 1 774.229333 896H100.565333z m124.757334-174.677333v-224.554667a49.92 49.92 0 0 0-99.797334 0V721.322667a49.92 49.92 0 0 0 99.84 0z m224.597333 0v-224.554667a49.92 49.92 0 0 0-99.84 0V721.322667a49.92 49.92 0 0 0 99.84 0z m224.554667 0v-224.554667a49.92 49.92 0 0 0-99.84 0V721.322667a49.92 49.92 0 0 0 99.84 0z m94.805333-453.12A54.613333 54.613333 0 0 0 824.192 213.333333v-122.026666a54.613333 54.613333 0 0 0-54.912-54.869334H180.437333a54.613333 54.613333 0 0 0-54.912 54.869334V213.333333a54.613333 54.613333 0 0 0 54.912 54.912H769.28z"  horiz-adv-x="1024" />

    


  </font>
</defs>
</svg>
